<svg xmlns="http://www.w3.org/2000/svg" xmlns:xlink="http://www.w3.org/1999/xlink" contentStyleType="text/css" data-diagram-type="DESCRIPTION" height="1469px" preserveAspectRatio="none" style="width:1262px;height:1469px;background:#FFFFFF;" version="1.1" viewBox="0 0 1262 1469" width="1262px" zoomAndPan="magnify"><title>Cas d'utilisation &#8212; Super Administrateur</title><defs/><g><g class="title" data-source-line="40"><text fill="#000000" font-family="Segoe UI" font-size="14" font-weight="bold" lengthAdjust="spacing" textLength="268.3311" x="492.8345" y="25.1074">Cas d'utilisation &#8212; Super Administrateur</text><text fill="#000000" font-family="Segoe UI" font-size="14" font-weight="bold" lengthAdjust="spacing" textLength="380.8096" x="436.5952" y="43.7285">niveau 0 &#183; 39 permissions &#183; p&#233;rim&#232;tre : toute la plateforme</text></g><!--cluster P0--><g class="cluster" data-entity="P0" data-source-line="48" data-uid="ent0005" id="cluster_P0"><path d="M146,767.2422 L255.8262,767.2422 A3.75,3.75 0 0 1 258.3262,769.7422 L265.3262,789.2031 L333,789.2031 A2.5,2.5 0 0 1 335.5,791.7031 L335.5,1018.7422 A2.5,2.5 0 0 1 333,1021.2422 L146,1021.2422 A2.5,2.5 0 0 1 143.5,1018.7422 L143.5,769.7422 A2.5,2.5 0 0 1 146,767.2422" fill="#F8FAFC" style="stroke:#94A3B8;stroke-width:1.5;"/><line style="stroke:#94A3B8;stroke-width:1.5;" x1="143.5" x2="265.3262" y1="789.2031" y2="789.2031"/><text fill="#000000" font-family="Segoe UI" font-size="12" font-weight="bold" lengthAdjust="spacing" textLength="108.8262" x="147.5" y="782.1914">H&#233;rit&#233; du Directeur</text></g><!--cluster P1--><g class="cluster" data-entity="P1" data-source-line="54" data-uid="ent0009" id="cluster_P1"><path d="M472,71.2422 L649.0039,71.2422 A3.75,3.75 0 0 1 651.5039,73.7422 L658.5039,93.2031 L994,93.2031 A2.5,2.5 0 0 1 996.5,95.7031 L996.5,399.7422 A2.5,2.5 0 0 1 994,402.2422 L472,402.2422 A2.5,2.5 0 0 1 469.5,399.7422 L469.5,73.7422 A2.5,2.5 0 0 1 472,71.2422" fill="#F8FAFC" style="stroke:#94A3B8;stroke-width:1.5;"/><line style="stroke:#94A3B8;stroke-width:1.5;" x1="469.5" x2="658.5039" y1="93.2031" y2="93.2031"/><text fill="#000000" font-family="Segoe UI" font-size="12" font-weight="bold" lengthAdjust="spacing" textLength="176.0039" x="473.5" y="86.1914">Cycle de vie des &#233;tablissements</text></g><!--cluster P2--><g class="cluster" data-entity="P2" data-source-line="64" data-uid="ent0017" id="cluster_P2"><path d="M793.5,410.2422 L915.2852,410.2422 A3.75,3.75 0 0 1 917.7852,412.7422 L924.7852,432.2031 L1000.5,432.2031 A2.5,2.5 0 0 1 1003,434.7031 L1003,691.7422 A2.5,2.5 0 0 1 1000.5,694.2422 L793.5,694.2422 A2.5,2.5 0 0 1 791,691.7422 L791,412.7422 A2.5,2.5 0 0 1 793.5,410.2422" fill="#F8FAFC" style="stroke:#94A3B8;stroke-width:1.5;"/><line style="stroke:#94A3B8;stroke-width:1.5;" x1="791" x2="924.7852" y1="432.2031" y2="432.2031"/><text fill="#000000" font-family="Segoe UI" font-size="12" font-weight="bold" lengthAdjust="spacing" textLength="120.7852" x="795" y="425.1914">Comptes de direction</text></g><!--cluster P3--><g class="cluster" data-entity="P3" data-source-line="71" data-uid="ent0022" id="cluster_P3"><path d="M804,702.2422 L968.5938,702.2422 A3.75,3.75 0 0 1 971.0938,704.7422 L978.0938,724.2031 L1252.5,724.2031 A2.5,2.5 0 0 1 1255,726.7031 L1255,1011.7422 A2.5,2.5 0 0 1 1252.5,1014.2422 L804,1014.2422 A2.5,2.5 0 0 1 801.5,1011.7422 L801.5,704.7422 A2.5,2.5 0 0 1 804,702.2422" fill="#F8FAFC" style="stroke:#94A3B8;stroke-width:1.5;"/><line style="stroke:#94A3B8;stroke-width:1.5;" x1="801.5" x2="978.0938" y1="724.2031" y2="724.2031"/><text fill="#000000" font-family="Segoe UI" font-size="12" font-weight="bold" lengthAdjust="spacing" textLength="163.5938" x="805.5" y="717.1914">R&#233;f&#233;rentiels de la plateforme</text></g><!--cluster P4--><g class="cluster" data-entity="P4" data-source-line="80" data-uid="ent0029" id="cluster_P4"><path d="M472.5,972.2422 L638.6113,972.2422 A3.75,3.75 0 0 1 641.1113,974.7422 L648.1113,994.2031 L657.5,994.2031 A2.5,2.5 0 0 1 660,996.7031 L660,1385.7422 A2.5,2.5 0 0 1 657.5,1388.2422 L472.5,1388.2422 A2.5,2.5 0 0 1 470,1385.7422 L470,974.7422 A2.5,2.5 0 0 1 472.5,972.2422" fill="#F8FAFC" style="stroke:#94A3B8;stroke-width:1.5;"/><line style="stroke:#94A3B8;stroke-width:1.5;" x1="470" x2="648.1113" y1="994.2031" y2="994.2031"/><text fill="#000000" font-family="Segoe UI" font-size="12" font-weight="bold" lengthAdjust="spacing" textLength="165.1113" x="474" y="987.1914">Observation de la plateforme</text></g><!--entity DIR--><g class="entity" data-entity="DIR" data-source-line="44" data-uid="ent0002" id="entity_DIR"><ellipse cx="32.2412" cy="834.7422" fill="#E6F4F1" rx="8" ry="8" style="stroke:#0F766E;stroke-width:0.5;"/><path d="M32.2412,842.7422 L32.2412,869.7422 M19.2412,850.7422 L45.2412,850.7422 M32.2412,869.7422 L19.2412,884.7422 M32.2412,869.7422 L45.2412,884.7422" fill="none" style="stroke:#0F766E;stroke-width:0.5;"/><text fill="#000000" font-family="Segoe UI" font-size="12" font-weight="bold" lengthAdjust="spacing" textLength="52.4824" x="6" y="899.1914">Directeur</text></g><!--entity SA--><g class="entity" data-entity="SA" data-source-line="45" data-uid="ent0003" id="entity_SA"><ellipse cx="239.6592" cy="675.7422" fill="#E6F4F1" rx="8" ry="8" style="stroke:#0F766E;stroke-width:0.5;"/><path d="M239.6592,683.7422 L239.6592,710.7422 M226.6592,691.7422 L252.6592,691.7422 M239.6592,710.7422 L226.6592,725.7422 M239.6592,710.7422 L252.6592,725.7422" fill="none" style="stroke:#0F766E;stroke-width:0.5;"/><text fill="#000000" font-family="Segoe UI" font-size="12" font-weight="bold" lengthAdjust="spacing" textLength="32.6953" x="197" y="740.1914">Super</text><text fill="#000000" font-family="Segoe UI" font-size="12" font-weight="bold" lengthAdjust="spacing" textLength="85.3184" x="197" y="756.1523">Administrateur</text></g><g class="entity" data-entity="N1" data-source-line="121" data-uid="ent0064" id="entity_N1"><path d="M95,62.2422 L95,168.0078 A0,0 0 0 0 95,168.0078 L383.7383,168.0078 A0,0 0 0 0 383.7383,168.0078 L383.7383,119.2422 L488.9218,115.2422 L383.7383,111.2422 L383.7383,72.2422 L373.7383,62.2422 L95,62.2422 A0,0 0 0 0 95,62.2422" fill="#FEF9C3" style="stroke:#B4530A;stroke-width:0.5;"/><path d="M373.7383,62.2422 L373.7383,72.2422 L383.7383,72.2422 L373.7383,62.2422" fill="#FEF9C3" style="stroke:#B4530A;stroke-width:0.5;"/><text fill="#000000" font-family="Segoe UI" font-size="12" lengthAdjust="spacing" textLength="245.3145" x="101" y="80.1914">Le Super Administrateur appartient au compte</text><text fill="#000000" font-family="Segoe UI" font-size="12" lengthAdjust="spacing" textLength="267.1582" x="101" y="96.1523">plateforme 00000000-&#8230; : son `establishmentId` est</text><text fill="#000000" font-family="Segoe UI" font-size="12" lengthAdjust="spacing" textLength="176.5488" x="101" y="112.1133">vide. Toute requ&#234;te qui borne sur</text><text fill="#000000" font-family="Segoe UI" font-size="12" lengthAdjust="spacing" textLength="240.4629" x="101" y="128.0742">`req.user.establishmentId` lui renvoie donc un</text><text fill="#000000" font-family="Segoe UI" font-size="12" lengthAdjust="spacing" textLength="267.7383" x="101" y="144.0352">p&#233;rim&#232;tre nul &#8212; les contr&#244;leurs doivent traiter son</text><text fill="#000000" font-family="Segoe UI" font-size="12" lengthAdjust="spacing" textLength="257.3965" x="101" y="159.9961">cas explicitement, sans quoi ses &#233;crans se vident.</text></g><g class="entity" data-entity="N2" data-source-line="130" data-uid="ent0065" id="entity_N2"><path d="M421,798.2422 L421,888.0469 A0,0 0 0 0 421,888.0469 L708.9063,888.0469 A0,0 0 0 0 708.9063,888.0469 L708.9063,879.0697 L817.7811,919.4817 L708.9063,871.0697 L708.9063,808.2422 L698.9063,798.2422 L421,798.2422 A0,0 0 0 0 421,798.2422" fill="#FEF9C3" style="stroke:#B4530A;stroke-width:0.5;"/><path d="M698.9063,798.2422 L698.9063,808.2422 L708.9063,808.2422 L698.9063,798.2422" fill="#FEF9C3" style="stroke:#B4530A;stroke-width:0.5;"/><text fill="#000000" font-family="Segoe UI" font-size="12" lengthAdjust="spacing" textLength="266.9063" x="427" y="816.1914">L'amor&#231;age cr&#233;e pour un nouvel &#233;tablissement ses</text><text fill="#000000" font-family="Segoe UI" font-size="12" lengthAdjust="spacing" textLength="257.1035" x="427" y="832.1523">types de garde, ses types d'absence et ses r&#244;les :</text><text fill="#000000" font-family="Segoe UI" font-size="12" lengthAdjust="spacing" textLength="219.3516" x="427" y="848.1133">chaque h&#244;pital re&#231;oit sa propre copie des</text><text fill="#000000" font-family="Segoe UI" font-size="12" lengthAdjust="spacing" textLength="248.4727" x="427" y="864.0742">r&#233;f&#233;rentiels, ce qui explique la duplication de la</text><text fill="#000000" font-family="Segoe UI" font-size="12" lengthAdjust="spacing" textLength="161.3555" x="427" y="880.0352">table `roles` par &#233;tablissement.</text></g><!--entity UC_ETAB--><g class="entity" data-entity="UC_ETAB" data-source-line="49" data-uid="ent0006" id="entity_UC_ETAB"><ellipse cx="239.4508" cy="822.9985" fill="#F1F5F9" rx="87.9508" ry="29.2563" style="stroke:#94A3B8;stroke-width:0.5;"/><text fill="#475569" font-family="Segoe UI" font-size="12" font-style="italic" lengthAdjust="spacing" textLength="41.9531" x="218.4742" y="810.0162">&#171;h&#233;rit&#233;&#187;</text><text fill="#475569" font-family="Segoe UI" font-size="12" lengthAdjust="spacing" textLength="154.9219" x="161.9898" y="825.9771">Administrer un &#233;tablissement</text><text fill="#475569" font-family="Segoe UI" font-size="12" lengthAdjust="spacing" textLength="88.2188" x="195.3414" y="841.938">et son personnel</text></g><!--entity UC_PLAN--><g class="entity" data-entity="UC_PLAN" data-source-line="50" data-uid="ent0007" id="entity_UC_PLAN"><ellipse cx="239.2665" cy="904.0722" fill="#F1F5F9" rx="82.7665" ry="33.33" style="stroke:#94A3B8;stroke-width:0.5;"/><text fill="#475569" font-family="Segoe UI" font-size="12" font-style="italic" lengthAdjust="spacing" textLength="41.9531" x="218.29" y="887.2707">&#171;h&#233;rit&#233;&#187;</text><text fill="#475569" font-family="Segoe UI" font-size="12" lengthAdjust="spacing" textLength="98.4844" x="190.0244" y="903.2316">&#201;laborer, valider et</text><text fill="#475569" font-family="Segoe UI" font-size="12" lengthAdjust="spacing" textLength="125.9297" x="176.3017" y="919.1925">superviser les plannings</text></g><!--entity UC_AUDIT--><g class="entity" data-entity="UC_AUDIT" data-source-line="51" data-uid="ent0008" id="entity_UC_AUDIT"><ellipse cx="239.6556" cy="984.3796" fill="#F1F5F9" rx="58.1556" ry="28.6374" style="stroke:#94A3B8;stroke-width:0.5;"/><text fill="#475569" font-family="Segoe UI" font-size="12" font-style="italic" lengthAdjust="spacing" textLength="41.9531" x="218.679" y="973.1296">&#171;h&#233;rit&#233;&#187;</text><text fill="#475569" font-family="Segoe UI" font-size="12" lengthAdjust="spacing" textLength="103.0137" x="188.1487" y="989.0905">Consulter le journal</text><text fill="#475569" font-family="Segoe UI" font-size="12" lengthAdjust="spacing" textLength="36.7617" x="221.2747" y="1005.0515">d'audit</text></g><!--entity UC_ETAB_CREER--><g class="entity" data-entity="UC_ETAB_CREER" data-source-line="55" data-uid="ent0010" id="entity_UC_ETAB_CREER"><ellipse cx="564.7757" cy="115.2973" fill="#EEF2FF" rx="75.7757" ry="17.5551" style="stroke:#1B4FCA;stroke-width:0.5;"/><text fill="#000000" font-family="Segoe UI" font-size="12" lengthAdjust="spacing" textLength="121.7227" x="503.9143" y="119.7778">Cr&#233;er un &#233;tablissement</text></g><!--entity UC_GEO--><g class="entity" data-entity="UC_GEO" data-source-line="56" data-uid="ent0011" id="entity_UC_GEO"><ellipse cx="896.9496" cy="118.4321" fill="#EEF2FF" rx="91.4496" ry="20.6899" style="stroke:#1B4FCA;stroke-width:0.5;"/><text fill="#000000" font-family="Segoe UI" font-size="12" lengthAdjust="spacing" textLength="157.875" x="818.0121" y="122.9126">G&#233;olocaliser un &#233;tablissement</text></g><!--entity UC_ETAB_ACT--><g class="entity" data-entity="UC_ETAB_ACT" data-source-line="57" data-uid="ent0012" id="entity_UC_ETAB_ACT"><ellipse cx="565.2075" cy="175.403" fill="#EEF2FF" rx="77.7075" ry="24.6608" style="stroke:#1B4FCA;stroke-width:0.5;"/><text fill="#000000" font-family="Segoe UI" font-size="12" lengthAdjust="spacing" textLength="110.0977" x="510.1586" y="173.2202">Activer ou d&#233;sactiver</text><text fill="#000000" font-family="Segoe UI" font-size="12" lengthAdjust="spacing" textLength="90.1113" x="520.1518" y="189.1811">un &#233;tablissement</text></g><!--entity UC_ETAB_SUPPR--><g class="entity" data-entity="UC_ETAB_SUPPR" data-source-line="58" data-uid="ent0013" id="entity_UC_ETAB_SUPPR"><ellipse cx="564.8082" cy="238.1038" fill="#EEF2FF" rx="87.3082" ry="19.8616" style="stroke:#1B4FCA;stroke-width:0.5;"/><text fill="#000000" font-family="Segoe UI" font-size="12" lengthAdjust="spacing" textLength="148.5352" x="490.5406" y="242.5843">Supprimer un &#233;tablissement</text></g><!--entity UC_CARTE--><g class="entity" data-entity="UC_CARTE" data-source-line="59" data-uid="ent0014" id="entity_UC_CARTE"><ellipse cx="564.9446" cy="301.3981" fill="#EEF2FF" rx="72.4446" ry="25.1559" style="stroke:#1B4FCA;stroke-width:0.5;"/><text fill="#000000" font-family="Segoe UI" font-size="12" lengthAdjust="spacing" textLength="92.3027" x="518.7932" y="297.3037">Consulter la carte</text><text fill="#000000" font-family="Segoe UI" font-size="12" lengthAdjust="spacing" textLength="100.0547" x="514.9172" y="313.2647">des &#233;tablissements</text></g><!--entity UC_CONFORM--><g class="entity" data-entity="UC_CONFORM" data-source-line="60" data-uid="ent0015" id="entity_UC_CONFORM"><ellipse cx="565.0865" cy="369.3703" fill="#EEF2FF" rx="86.5865" ry="24.6281" style="stroke:#1B4FCA;stroke-width:0.5;"/><text fill="#000000" font-family="Segoe UI" font-size="12" lengthAdjust="spacing" textLength="123.3691" x="503.4019" y="367.2359">Contr&#244;ler la conformit&#233;</text><text fill="#000000" font-family="Segoe UI" font-size="12" lengthAdjust="spacing" textLength="100.0547" x="515.0592" y="383.1969">des &#233;tablissements</text></g><!--entity UC_REPARER--><g class="entity" data-entity="UC_REPARER" data-source-line="61" data-uid="ent0016" id="entity_UC_REPARER"><ellipse cx="896.8161" cy="369.0517" fill="#EEF2FF" rx="62.8161" ry="24.8095" style="stroke:#1B4FCA;stroke-width:0.5;"/><text fill="#000000" font-family="Segoe UI" font-size="12" lengthAdjust="spacing" textLength="87.5508" x="853.0407" y="366.6498">R&#233;parer un &#233;cart</text><text fill="#000000" font-family="Segoe UI" font-size="12" lengthAdjust="spacing" textLength="74.5371" x="859.5476" y="382.6107">de conformit&#233;</text></g><!--entity UC_DIR_CREER--><g class="entity" data-entity="UC_DIR_CREER" data-source-line="65" data-uid="ent0018" id="entity_UC_DIR_CREER"><ellipse cx="897.2285" cy="461.355" fill="#EEF2FF" rx="72.2285" ry="25.1129" style="stroke:#1B4FCA;stroke-width:0.5;"/><text fill="#000000" font-family="Segoe UI" font-size="12" lengthAdjust="spacing" textLength="91.3477" x="851.5547" y="457.1986">Cr&#233;er le directeur</text><text fill="#000000" font-family="Segoe UI" font-size="12" lengthAdjust="spacing" textLength="99.9375" x="847.2598" y="473.1595">d'un &#233;tablissement</text></g><!--entity UC_DIR_PWD--><g class="entity" data-entity="UC_DIR_PWD" data-source-line="66" data-uid="ent0019" id="entity_UC_DIR_PWD"><ellipse cx="896.8667" cy="596.3135" fill="#EEF2FF" rx="97.8667" ry="23.5713" style="stroke:#1B4FCA;stroke-width:0.5;"/><text fill="#000000" font-family="Segoe UI" font-size="12" lengthAdjust="spacing" textLength="147.2109" x="823.2613" y="595.7965">R&#233;initialiser le mot de passe</text><text fill="#000000" font-family="Segoe UI" font-size="12" lengthAdjust="spacing" textLength="73.9629" x="859.8853" y="611.7574">d'un directeur</text></g><!--entity UC_DIR_STATUT--><g class="entity" data-entity="UC_DIR_STATUT" data-source-line="67" data-uid="ent0020" id="entity_UC_DIR_STATUT"><ellipse cx="897.0226" cy="662.013" fill="#EEF2FF" rx="75.5226" ry="23.7709" style="stroke:#1B4FCA;stroke-width:0.5;"/><text fill="#000000" font-family="Segoe UI" font-size="12" lengthAdjust="spacing" textLength="111.457" x="841.2941" y="661.182">Activer ou suspendre</text><text fill="#000000" font-family="Segoe UI" font-size="12" lengthAdjust="spacing" textLength="64.1367" x="864.9543" y="677.1429">un directeur</text></g><!--entity UC_PROF_ARB--><g class="entity" data-entity="UC_PROF_ARB" data-source-line="68" data-uid="ent0021" id="entity_UC_PROF_ARB"><ellipse cx="897.0313" cy="529.0839" fill="#EEF2FF" rx="94.0313" ry="24.8417" style="stroke:#1B4FCA;stroke-width:0.5;"/><text fill="#000000" font-family="Segoe UI" font-size="12" lengthAdjust="spacing" textLength="133.043" x="830.5098" y="526.6348">Arbitrer les demandes de</text><text fill="#000000" font-family="Segoe UI" font-size="12" lengthAdjust="spacing" textLength="114.1875" x="839.9375" y="542.5957">modification de profil</text></g><!--entity UC_REF_SHIFT--><g class="entity" data-entity="UC_REF_SHIFT" data-source-line="72" data-uid="ent0023" id="entity_UC_REF_SHIFT"><ellipse cx="896.7901" cy="936.4002" fill="#EEF2FF" rx="78.7901" ry="18.158" style="stroke:#1B4FCA;stroke-width:0.5;"/><text fill="#000000" font-family="Segoe UI" font-size="12" lengthAdjust="spacing" textLength="128.8711" x="832.3545" y="940.8807">G&#233;rer les types de garde</text></g><!--entity UC_REF_ABS--><g class="entity" data-entity="UC_REF_ABS" data-source-line="73" data-uid="ent0024" id="entity_UC_REF_ABS"><ellipse cx="897.2053" cy="814.3833" fill="#EEF2FF" rx="81.2053" ry="18.6411" style="stroke:#1B4FCA;stroke-width:0.5;"/><text fill="#000000" font-family="Segoe UI" font-size="12" lengthAdjust="spacing" textLength="134.5195" x="829.9456" y="818.8637">G&#233;rer les types d'absence</text></g><!--entity UC_REF_PERM--><g class="entity" data-entity="UC_REF_PERM" data-source-line="74" data-uid="ent0025" id="entity_UC_REF_PERM"><ellipse cx="896.8566" cy="875.3239" fill="#EEF2FF" rx="74.3566" ry="24.5817" style="stroke:#1B4FCA;stroke-width:0.5;"/><text fill="#000000" font-family="Segoe UI" font-size="12" lengthAdjust="spacing" textLength="105.5449" x="844.0841" y="873.2584">Consulter la matrice</text><text fill="#000000" font-family="Segoe UI" font-size="12" lengthAdjust="spacing" textLength="84.4688" x="854.6222" y="889.2193">des permissions</text></g><!--entity UC_REF_SEED--><g class="entity" data-entity="UC_REF_SEED" data-source-line="75" data-uid="ent0026" id="entity_UC_REF_SEED"><ellipse cx="897.0416" cy="753.3182" fill="#EEF2FF" rx="87.5416" ry="24.576" style="stroke:#1B4FCA;stroke-width:0.5;"/><text fill="#000000" font-family="Segoe UI" font-size="12" lengthAdjust="spacing" textLength="125.0801" x="834.5016" y="751.2611">Amorcer les r&#233;f&#233;rentiels</text><text fill="#000000" font-family="Segoe UI" font-size="12" lengthAdjust="spacing" textLength="99.9375" x="847.0729" y="767.2221">d'un &#233;tablissement</text></g><!--entity UC_FERIES--><g class="entity" data-entity="UC_FERIES" data-source-line="76" data-uid="ent0027" id="entity_UC_FERIES"><ellipse cx="897.0348" cy="989.1491" fill="#EEF2FF" rx="70.0348" ry="16.407" style="stroke:#1B4FCA;stroke-width:0.5;"/><text fill="#000000" font-family="Segoe UI" font-size="12" lengthAdjust="spacing" textLength="107.7305" x="843.1695" y="993.6296">G&#233;rer les jours f&#233;ri&#233;s</text></g><!--entity UC_FERIES_TN--><g class="entity" data-entity="UC_FERIES_TN" data-source-line="77" data-uid="ent0028" id="entity_UC_FERIES_TN"><ellipse cx="1164.7614" cy="982.0389" fill="#EEF2FF" rx="81.7614" ry="23.2967" style="stroke:#1B4FCA;stroke-width:0.5;"/><text fill="#000000" font-family="Segoe UI" font-size="12" lengthAdjust="spacing" textLength="123.873" x="1102.8249" y="981.9617">Amorcer les jours f&#233;ri&#233;s</text><text fill="#000000" font-family="Segoe UI" font-size="12" lengthAdjust="spacing" textLength="46.7109" x="1141.4059" y="997.9227">tunisiens</text></g><!--entity UC_STAT--><g class="entity" data-entity="UC_STAT" data-source-line="81" data-uid="ent0030" id="entity_UC_STAT"><ellipse cx="564.7948" cy="1224.1724" fill="#EEF2FF" rx="86.7948" ry="23.4302" style="stroke:#1B4FCA;stroke-width:0.5;"/><text fill="#000000" font-family="Segoe UI" font-size="12" lengthAdjust="spacing" textLength="130.9277" x="499.3309" y="1223.8802">Consulter les statistiques</text><text fill="#000000" font-family="Segoe UI" font-size="12" lengthAdjust="spacing" textLength="57.9785" x="535.8055" y="1239.8411">plateforme</text></g><!--entity UC_GOUV--><g class="entity" data-entity="UC_GOUV" data-source-line="82" data-uid="ent0031" id="entity_UC_GOUV"><ellipse cx="564.8267" cy="1290.4452" fill="#EEF2FF" rx="83.8267" ry="24.203" style="stroke:#1B4FCA;stroke-width:0.5;"/><text fill="#000000" font-family="Segoe UI" font-size="12" lengthAdjust="spacing" textLength="121.6875" x="503.9829" y="1288.9485">Consulter la r&#233;partition</text><text fill="#000000" font-family="Segoe UI" font-size="12" lengthAdjust="spacing" textLength="85.8691" x="521.8921" y="1304.9094">par gouvernorat</text></g><!--entity UC_ONLINE--><g class="entity" data-entity="UC_ONLINE" data-source-line="83" data-uid="ent0032" id="entity_UC_ONLINE"><ellipse cx="564.9152" cy="1356.2685" fill="#EEF2FF" rx="73.9152" ry="23.5263" style="stroke:#1B4FCA;stroke-width:0.5;"/><text fill="#000000" font-family="Segoe UI" font-size="12" lengthAdjust="spacing" textLength="110.2852" x="509.7726" y="1355.8229">Suivre les utilisateurs</text><text fill="#000000" font-family="Segoe UI" font-size="12" lengthAdjust="spacing" textLength="53.4082" x="538.2111" y="1371.7839">connect&#233;s</text></g><!--entity UC_ACTIVITE--><g class="entity" data-entity="UC_ACTIVITE" data-source-line="84" data-uid="ent0033" id="entity_UC_ACTIVITE"><ellipse cx="565.1073" cy="1023.3204" fill="#EEF2FF" rx="63.1073" ry="25.0782" style="stroke:#1B4FCA;stroke-width:0.5;"/><text fill="#000000" font-family="Segoe UI" font-size="12" lengthAdjust="spacing" textLength="78.8379" x="525.6884" y="1019.1139">Suivre l'activit&#233;</text><text fill="#000000" font-family="Segoe UI" font-size="12" lengthAdjust="spacing" textLength="86.9063" x="521.6542" y="1035.0749">de la plateforme</text></g><!--entity UC_ANNUAIRE--><g class="entity" data-entity="UC_ANNUAIRE" data-source-line="85" data-uid="ent0034" id="entity_UC_ANNUAIRE"><ellipse cx="565.1384" cy="1090.4755" fill="#EEF2FF" rx="73.1384" ry="24.2333" style="stroke:#1B4FCA;stroke-width:0.5;"/><text fill="#000000" font-family="Segoe UI" font-size="12" lengthAdjust="spacing" textLength="105.4453" x="512.4158" y="1088.9328">Consulter l'annuaire</text><text fill="#000000" font-family="Segoe UI" font-size="12" lengthAdjust="spacing" textLength="75.2637" x="527.5066" y="1104.8937">inter-h&#244;pitaux</text></g><!--entity UC_NOTE_DIR--><g class="entity" data-entity="UC_NOTE_DIR" data-source-line="86" data-uid="ent0035" id="entity_UC_NOTE_DIR"><ellipse cx="565.1736" cy="1157.0319" fill="#EEF2FF" rx="62.6736" ry="24.7897" style="stroke:#1B4FCA;stroke-width:0.5;"/><text fill="#000000" font-family="Segoe UI" font-size="12" lengthAdjust="spacing" textLength="87.4219" x="521.4627" y="1154.6591">Publier une note</text><text fill="#000000" font-family="Segoe UI" font-size="12" lengthAdjust="spacing" textLength="74.0508" x="528.1482" y="1170.6201">aux directeurs</text></g><g class="link" data-entity-1="DIR" data-entity-2="SA" data-uid="lnk4" id="link_DIR_SA"><polygon fill="none" points="48.6137,826.1277,61.9331,812.6149,51.1616,807.3258,48.6137,826.1277" style="stroke:#334155;stroke-width:1;"/><path d="M56.5473,809.9704 C66.9186,788.8489 74.4849,779.7562 95,763.2422 C124.4909,739.503 166.0093,726.667 196.8048,719.9699" fill="none" style="stroke:#334155;stroke-width:1;"/></g><g class="link" data-entity-1="DIR" data-entity-2="UC_ETAB" data-uid="lnk36" id="link_DIR_UC_ETAB"><polygon fill="#334155" points="151.0701,840.6856,141.4615,838.5238,146.1668,841.6639,143.0267,846.3692,151.0701,840.6856" style="stroke:#334155;stroke-width:1;"/><path d="M58.1983,859.2148 C81.4557,854.5746 111.5024,848.5799 145.1861,841.8596" fill="none" style="stroke:#334155;stroke-width:1;"/></g><g class="link" data-entity-1="DIR" data-entity-2="UC_PLAN" data-uid="lnk37" id="link_DIR_UC_PLAN"><polygon fill="#334155" points="156.1733,888.2175,148.1033,882.5717,151.2654,887.2622,146.5748,890.4243,156.1733,888.2175" style="stroke:#334155;stroke-width:1;"/><path d="M58.1983,869.147 C82.6346,873.9034 115.1722,880.2368 150.2838,887.0712" fill="none" style="stroke:#334155;stroke-width:1;"/></g><g class="link" data-entity-1="DIR" data-entity-2="UC_AUDIT" data-uid="lnk38" id="link_DIR_UC_AUDIT"><polygon fill="#334155" points="181.3917,978.5086,173.2275,973,176.4684,977.6364,171.832,980.8773,181.3917,978.5086" style="stroke:#334155;stroke-width:1;"/><path d="M53.6237,902.4064 C64.0624,918.4229 78.1206,935.9213 95,947.2422 C120.5338,964.3675 147.59,972.5204 175.4837,977.462" fill="none" style="stroke:#334155;stroke-width:1;"/></g><g class="link" data-entity-1="SA" data-entity-2="UC_ETAB_CREER" data-uid="lnk39" id="link_SA_UC_ETAB_CREER"><polygon fill="#334155" points="488.6524,114.0918,479.1997,111.3266,483.697,114.758,480.2656,119.2552,488.6524,114.0918" style="stroke:#334155;stroke-width:1;"/><path d="M240.1288,667.008 C241.9436,557.4265 262.8146,280.6799 421,141.2422 C439.4559,124.9736 458.6498,118.1251 482.7059,114.8912" fill="none" style="stroke:#334155;stroke-width:1;"/></g><g class="link" data-entity-1="SA" data-entity-2="UC_ETAB_ACT" data-uid="lnk40" id="link_SA_UC_ETAB_ACT"><polygon fill="#334155" points="487.2651,179.41,477.6555,177.2525,482.3622,180.3905,479.2242,185.0972,487.2651,179.41" style="stroke:#334155;stroke-width:1;"/><path d="M242.9237,667.0086 C250.7293,567.5401 283.5424,332.2951 421,209.2422 C439.1574,192.9876 457.7846,185.3054 481.3816,180.5866" fill="none" style="stroke:#334155;stroke-width:1;"/></g><g class="link" data-entity-1="SA" data-entity-2="UC_ETAB_SUPPR" data-uid="lnk41" id="link_SA_UC_ETAB_SUPPR"><polygon fill="#334155" points="477.3887,241.9079,467.7435,239.9155,472.5033,242.9723,469.4465,247.7321,477.3887,241.9079" style="stroke:#334155;stroke-width:1;"/><path d="M245.0189,667.0695 C256.5593,575.6187 295.703,371.3218 421,267.2422 C436.8811,254.0504 451.2813,247.5961 471.5262,243.1852" fill="none" style="stroke:#334155;stroke-width:1;"/></g><g class="link" data-entity-1="SA" data-entity-2="UC_CARTE" data-uid="lnk42" id="link_SA_UC_CARTE"><polygon fill="#334155" points="492.2643,305.732,482.6838,303.4489,487.349,306.6482,484.1497,311.3134,492.2643,305.732" style="stroke:#334155;stroke-width:1;"/><path d="M249.0771,667.1838 C266.5205,586.9136 313.929,421.7138 421,335.2422 C441.0512,319.0486 461.641,311.44 486.3659,306.8314" fill="none" style="stroke:#334155;stroke-width:1;"/></g><g class="link" data-entity-1="SA" data-entity-2="UC_CONFORM" data-uid="lnk43" id="link_SA_UC_CONFORM"><polygon fill="#334155" points="522.9179,393.8942,513.1752,395.3359,518.6954,396.5718,517.4594,402.092,522.9179,393.8942" style="stroke:#334155;stroke-width:1;"/><path d="M267.319,667.0972 C296.6342,618.964 346.8395,542.9054 402,487.2422 C438.8604,450.0459 483.3037,419.0149 517.8508,397.1074" fill="none" style="stroke:#334155;stroke-width:1;"/></g><g class="link" data-entity-1="SA" data-entity-2="UC_DIR_CREER" data-uid="lnk44" id="link_SA_UC_DIR_CREER"><polygon fill="#334155" points="824.686,467.1766,815.3138,464.1499,819.714,467.7049,816.1591,472.1052,824.686,467.1766" style="stroke:#334155;stroke-width:1;"/><path d="M282.205,670.3848 C316.5093,637.6018 367.9541,593.8117 421,568.2422 C554.8283,503.7335 722.812,478.0016 818.7196,467.8106" fill="none" style="stroke:#334155;stroke-width:1;"/></g><g class="link" data-entity-1="SA" data-entity-2="UC_DIR_PWD" data-uid="lnk45" id="link_SA_UC_DIR_PWD"><polygon fill="#334155" points="798.5672,601.7692,789.3062,598.4175,793.5798,602.1238,789.8736,606.3974,798.5672,601.7692" style="stroke:#334155;stroke-width:1;"/><path d="M282.0953,696.4155 C318.2307,682.4715 372.274,663.2215 421,652.2422 C549.7986,623.2203 695.8551,609.0721 792.5823,602.1947" fill="none" style="stroke:#334155;stroke-width:1;"/></g><g class="link" data-entity-1="SA" data-entity-2="UC_DIR_STATUT" data-uid="lnk46" id="link_SA_UC_DIR_STATUT"><polygon fill="#334155" points="821.2686,651.8131,812.7656,646.8434,816.2992,651.2608,811.8818,654.7944,821.2686,651.8131" style="stroke:#334155;stroke-width:1;"/><path d="M282.2759,705.604 C366.1872,690.7188 561.36,658.3971 727,648.2422 C750.955,646.7736 757.044,646.7894 781,648.2422 C794.0493,649.0336 801.9225,649.6628 815.3053,651.1503" fill="none" style="stroke:#334155;stroke-width:1;"/></g><g class="link" data-entity-1="SA" data-entity-2="UC_PROF_ARB" data-uid="lnk47" id="link_SA_UC_PROF_ARB"><polygon fill="#334155" points="802.7458,537.6463,793.3609,534.6591,797.776,538.1955,794.2396,542.6107,802.7458,537.6463" style="stroke:#334155;stroke-width:1;"/><path d="M282.1656,685.9812 C317.6823,663.9604 370.8091,633.8348 421,616.2422 C549.1706,571.3166 699.3761,549.0697 796.7821,538.3053" fill="none" style="stroke:#334155;stroke-width:1;"/></g><g class="link" data-entity-1="SA" data-entity-2="UC_REF_SHIFT" data-uid="lnk48" id="link_SA_UC_REF_SHIFT"><polygon fill="#334155" points="817.8272,934.6534,808.9338,930.4218,812.8289,934.524,808.7267,938.4191,817.8272,934.6534" style="stroke:#334155;stroke-width:1;"/><path d="M282.3048,717.3738 C314.4084,722.731 357.5852,735.0275 384,763.2422 C426.2257,808.3451 373.4144,857.8354 421,897.2422 C450.8126,921.9307 684.8354,931.209 811.8292,934.4981" fill="none" style="stroke:#334155;stroke-width:1;"/></g><g class="link" data-entity-1="SA" data-entity-2="UC_REF_ABS" data-uid="lnk49" id="link_SA_UC_REF_ABS"><polygon fill="#334155" points="815.813,802.9123,809.0856,795.7191,811.2089,800.9623,805.9657,803.0856,815.813,802.9123" style="stroke:#334155;stroke-width:1;"/><path d="M282.3983,713.9308 C402.5523,716.2689 742.1889,725.5526 781,756.2422 C792.3556,765.2216 780.4591,777.319 791,787.2422 C798.1265,793.9511 801.1652,796.7085 810.2881,800.5723" fill="none" style="stroke:#334155;stroke-width:1;"/></g><g class="link" data-entity-1="SA" data-entity-2="UC_REF_PERM" data-uid="lnk50" id="link_SA_UC_REF_PERM"><polygon fill="#334155" points="822.4491,854.9148,815.2802,848.1615,817.7309,853.2599,812.6325,855.7107,822.4491,854.9148" style="stroke:#334155;stroke-width:1;"/><path d="M282.2735,719.7862 C395.2389,737.5129 698.9905,785.3908 709,789.2422 C749.4997,804.8253 751.7234,823.792 791,842.2422 C800.9447,846.9137 806.0574,849.1657 816.7872,852.929" fill="none" style="stroke:#334155;stroke-width:1;"/></g><g class="link" data-entity-1="SA" data-entity-2="UC_REF_SEED" data-uid="lnk51" id="link_SA_UC_REF_SEED"><polygon fill="#334155" points="826.8047,728.7013,819.2669,722.3624,822.0008,727.3148,817.0484,730.0487,826.8047,728.7013" style="stroke:#334155;stroke-width:1;"/><path d="M282.1887,709.6072 C373.3262,702.5373 596.8834,689.9738 781,718.2422 C796.0583,720.5542 806.115,722.7297 821.04,727.0375" fill="none" style="stroke:#334155;stroke-width:1;"/></g><g class="link" data-entity-1="SA" data-entity-2="UC_FERIES" data-uid="lnk52" id="link_SA_UC_FERIES"><polygon fill="#334155" points="826.7629,981.464,818.2669,976.4822,821.7943,980.9046,817.3719,984.432,826.7629,981.464" style="stroke:#334155;stroke-width:1;"/><path d="M282.1919,716.4415 C314.8968,721.2642 358.9435,733.2967 384,763.2422 C416.635,802.2451 390.0466,826.8116 402,876.2422 C408.3758,902.6079 399.9891,917.0857 421,934.2422 C422.9517,935.8358 689.4656,966.0066 820.8006,980.7927" fill="none" style="stroke:#334155;stroke-width:1;"/></g><g class="link" data-entity-1="SA" data-entity-2="UC_STAT" data-uid="lnk53" id="link_SA_UC_STAT"><polygon fill="#334155" points="477.6485,1220.451,469.7994,1214.5019,472.7805,1219.3095,467.9729,1222.2906,477.6485,1220.451" style="stroke:#334155;stroke-width:1;"/><path d="M282.0348,715.6355 C315.3382,719.962 360.2955,731.7189 384,763.2422 C406.2697,792.8574 397.3546,1059.4805 402,1096.2422 C407.3981,1138.9609 391.004,1160.351 421,1191.2422 C435.9983,1206.6881 450.8339,1214.1628 471.8069,1219.0812" fill="none" style="stroke:#334155;stroke-width:1;"/></g><g class="link" data-entity-1="SA" data-entity-2="UC_GOUV" data-uid="lnk54" id="link_SA_UC_GOUV"><polygon fill="#334155" points="480.9596,1287.2438,472.9999,1281.4435,476.071,1286.1941,471.3205,1289.2653,480.9596,1287.2438" style="stroke:#334155;stroke-width:1;"/><path d="M282.1061,715.5822 C315.4524,719.8765 360.4327,731.6162 384,763.2422 C410.3847,798.649 396.7416,1116.4 402,1160.2422 C407.2314,1203.8599 390.4592,1225.6648 421,1257.2422 C436.7647,1273.542 452.9854,1281.2373 475.0933,1285.9842" fill="none" style="stroke:#334155;stroke-width:1;"/></g><g class="link" data-entity-1="SA" data-entity-2="UC_ONLINE" data-uid="lnk55" id="link_SA_UC_ONLINE"><polygon fill="#334155" points="490.649,1355.045,482.4107,1349.6478,485.7142,1354.2398,481.1222,1357.5434,490.649,1355.045" style="stroke:#334155;stroke-width:1;"/><path d="M282.1598,715.5423 C315.5384,719.8126 360.5362,731.5394 384,763.2422 C399.3468,783.9779 398.9865,1201.6216 402,1227.2422 C407.0808,1270.4387 390.7316,1292.0079 421,1323.2422 C439.0858,1341.9051 459.5394,1349.9685 484.7273,1354.0787" fill="none" style="stroke:#334155;stroke-width:1;"/></g><g class="link" data-entity-1="SA" data-entity-2="UC_ACTIVITE" data-uid="lnk56" id="link_SA_UC_ACTIVITE"><polygon fill="#334155" points="501.8218,1018.388,493.6559,1012.8818,496.8982,1017.5173,492.2627,1020.7595,501.8218,1018.388" style="stroke:#334155;stroke-width:1;"/><path d="M282.0947,715.8894 C315.2005,720.3761 359.8506,732.2254 384,763.2422 C412.0943,799.3257 373.7619,932.2711 402,968.2422 C425.7507,998.4971 461.0189,1011.1718 495.9135,1017.3431" fill="none" style="stroke:#334155;stroke-width:1;"/></g><g class="link" data-entity-1="SA" data-entity-2="UC_ANNUAIRE" data-uid="lnk57" id="link_SA_UC_ANNUAIRE"><polygon fill="#334155" points="491.6356,1088.923,483.3848,1083.5449,486.699,1088.1292,482.1147,1091.4435,491.6356,1088.923" style="stroke:#334155;stroke-width:1;"/><path d="M282.1082,715.8788 C315.2221,720.3593 359.8765,732.2053 384,763.2422 C424.4102,815.2332 374.5985,1010.5201 421,1057.2422 C439.4928,1075.8627 460.3297,1083.889 485.7117,1087.9705" fill="none" style="stroke:#334155;stroke-width:1;"/></g><g class="link" data-entity-1="SA" data-entity-2="UC_NOTE_DIR" data-uid="lnk58" id="link_SA_UC_NOTE_DIR"><polygon fill="#334155" points="502.4455,1157.4538,493.9493,1152.4723,497.4769,1156.8946,493.0547,1160.4222,502.4455,1157.4538" style="stroke:#334155;stroke-width:1;"/><path d="M282.218,715.7941 C315.3972,720.2241 360.0859,732.0437 384,763.2422 C400.8077,785.1696 398.6858,983.8137 402,1011.2422 C408.0566,1061.3666 386.4849,1086.3932 421,1123.2422 C441.6721,1145.3122 467.8843,1153.5643 496.4832,1156.7828" fill="none" style="stroke:#334155;stroke-width:1;"/></g><g class="link" data-entity-1="UC_ETAB_CREER" data-entity-2="UC_GEO" data-uid="lnk59" id="link_UC_ETAB_CREER_UC_GEO"><polygon fill="#334155" points="805.4727,117.4192,796.5095,113.3376,800.4729,117.3738,796.4367,121.3372,805.4727,117.4192" style="stroke:#334155;stroke-width:1;"/><path d="M641.295,115.9267 C690.0883,116.3703 747.9184,116.896 799.473,117.3647" fill="none" style="stroke:#334155;stroke-width:1;stroke-dasharray:7,7;"/><text fill="#000000" font-family="Segoe UI" font-size="12" lengthAdjust="spacing" textLength="50.4199" x="729" y="113.1914">&#171;include&#187;</text></g><g class="link" data-entity-1="UC_ETAB_CREER" data-entity-2="UC_DIR_CREER" data-uid="lnk60" id="link_UC_ETAB_CREER_UC_DIR_CREER"><polygon fill="#334155" points="824.6497,450.161,816.9772,443.9858,819.817,448.8782,814.9246,451.718,824.6497,450.161" style="stroke:#334155;stroke-width:1;"/><path d="M641.0696,111.4319 C666.1315,114.2239 691.9803,122.2724 709,141.2422 C746.3448,182.8658 694.1729,346.9703 727,392.2422 C749.7896,423.6713 783.6668,439.2818 818.8505,448.6216" fill="none" style="stroke:#334155;stroke-width:1;stroke-dasharray:7,7;"/><text fill="#000000" font-family="Segoe UI" font-size="12" lengthAdjust="spacing" textLength="50.4199" x="729" y="388.1914">&#171;include&#187;</text></g><g class="link" data-entity-1="UC_ETAB_CREER" data-entity-2="UC_REF_SEED" data-uid="lnk61" id="link_UC_ETAB_CREER_UC_REF_SEED"><polygon fill="#334155" points="828.8219,728.6467,822.8916,720.7835,824.4495,726.2216,819.0114,727.7794,828.8219,728.6467" style="stroke:#334155;stroke-width:1;"/><path d="M641.2215,111.2967 C666.2987,114.075 692.1184,122.1494 709,141.2422 C732.2217,167.5054 721.4905,421.6207 727,456.2422 C744.4843,566.1129 721.616,611.2758 791,698.2422 C801.0105,710.7894 809.4215,717.8864 823.575,725.7365" fill="none" style="stroke:#334155;stroke-width:1;stroke-dasharray:7,7;"/><text fill="#000000" font-family="Segoe UI" font-size="12" lengthAdjust="spacing" textLength="50.4199" x="729" y="452.1914">&#171;include&#187;</text></g><g class="link" data-entity-1="UC_CONFORM" data-entity-2="UC_REPARER" data-uid="lnk62" id="link_UC_CONFORM_UC_REPARER"><polygon fill="#334155" points="651.8422,369.2422,660.8422,373.2422,656.8422,369.2422,660.8422,365.2422,651.8422,369.2422" style="stroke:#334155;stroke-width:1;"/><path d="M657.8422,369.2422 C714.8472,369.2422 782.3723,369.2422 833.7788,369.2422" fill="none" style="stroke:#334155;stroke-width:1;stroke-dasharray:7,7;"/><text fill="#000000" font-family="Segoe UI" font-size="12" lengthAdjust="spacing" textLength="48.123" x="730" y="365.1914">&#171;extend&#187;</text></g><g class="link" data-entity-1="UC_FERIES" data-entity-2="UC_FERIES_TN" data-uid="lnk63" id="link_UC_FERIES_UC_FERIES_TN"><polygon fill="#334155" points="967.194,987.4213,976.2961,991.1831,972.1922,987.2898,976.0856,983.1859,967.194,987.4213" style="stroke:#334155;stroke-width:1;"/><path d="M973.1919,987.2635 C1008.5969,986.3317 1045.9097,985.3498 1082.8788,984.377" fill="none" style="stroke:#334155;stroke-width:1;stroke-dasharray:7,7;"/><text fill="#000000" font-family="Segoe UI" font-size="12" lengthAdjust="spacing" textLength="48.123" x="1015" y="980.1914">&#171;extend&#187;</text></g><g class="legend" data-source-line="137"><rect fill="none" height="47.2422" rx="7.5" ry="7.5" style="stroke:#000000;stroke-width:1;" width="237.5684" x="1004.4316" y="1402.2422"/><text fill="#000000" font-family="Segoe UI" font-size="14" lengthAdjust="spacing" textLength="167.624" x="1009.4316" y="1422.3496">Bleu : cas propres &#224; ce r&#244;le.</text><text fill="#000000" font-family="Segoe UI" font-size="14" lengthAdjust="spacing" textLength="227.5684" x="1009.4316" y="1440.9707">Gris : capacit&#233;s h&#233;rit&#233;es du Directeur.</text></g><!--SRC=[ZLTBRzj64BxlhvYw1rzimV8hSM0Oe6JI5U1AWXxfnO2z9jVoDjGklRjKuhO1SkszFw2dfkuvGE_LFyalwUoIb9Qov5ONYSDvFxuPVPCfEfbIIEcZp0teAJDKKABVSP5HHQTmI-Dt4oLpaRHbAXLy6xcFnv6mEvgd9fB2TEcKmP1D98DnPptBaF_4eBdllTJtD97lkPZ07Kqryzu4IidtfTc3WyFcqP7_CZPIjQHAc2fPzg9NnyVXCvRL0CBZw31ghh8vtynZok1MfedtTgnPJ3MhMMgs3gDsi8RfcQqmsgybAoyOuMUomdjwUZz_KjpCdyxECCdDw2Ww8PxH-lkJm-2WzPfOfzUyFNnrT7HyGZvwTljeZKxgKPHAdZCzA_dhA8ZQ7cDNcZLSONJIFbZbyWss3eyEzW9233UOvpRLa6pdXgTSKyEbWA-VVeDXdZ45GJBbWckZg66vkXA2pnZDOG_- -HiEJW1PfbnhbD6MajdOf_C_ZMBm1WmsCiE6XYn5wJkffeoGbDqPV0EAJ-uD95ons9eaXDhYmzQvew2jBK2tpZk3weNpvqhK7N9Cmu0W7vp-ihjhVvEio1viVLUM0f8SwdhxUrXuM3J1ra8hXfmBc3yPUelPq6pAXBaI30SIqu8Eu9TWgTCnRb-7ew05VibzdVDVKtehKUCEp6ZACVl0K9UsSSouniUKQPiRJAgOw4fd_pBeRjJPnaJZ_3fP-57cIj3qIYJRD4-ugJG4u_FEgAxYevULzcECmWc36RTVUYNQmf5-ivwWjfe_hSkDdudhzY0C1xxKnVm96ox6wFLBmXTXhrOCx8WPyiiSalcJfiNZbNZPUD0U-KgmNJBinV_qUJZkzmSRKamXfiemJF26BA6ITZ0OXIloHis_fAK2AMpZspAyhARNZNg3xtr5W_aJZcyLWFN4Ql0rLiA3i1yCCFErAijfPj0UIYo6hAZi_jhAfXMV6tE4WqrPmr5xNcZq5UV7yBBIg6mgZRMTKHGlzIMr4InLzNyutr1xdUkCYKGnL_crmiDHC1hNoXweM-wcE7MnJwbBUe8wfZBXTpmk0CvwfkGTNqnoVz2BheD1gvP3ZEeEPmY3vonrgQo1MP7EWtewBwn0OTuyPaK19XInTrciw7huNISQlIorJMyr4t5DB6WDDtRgb1h5ux9NFLZsvVjXlSE2gLHnQLRLOdsn0rm4ONY-8G0BIngiCexJMmb5uQ0J3ZTPhyjS2PCZ6dCcLiIlHzrQWNgO8pLRb7HDTGvNcjt3JmtQeAWs_25dQ7D558tQzjgOSEN64pSe6h-oYnOcCiVM5H9NqmBPUkEtTLJYCzoDrdYrRx6bqNXizqfil8JrkfUTRhXEUDiXOWKfQwAsEw0zwhpjF4EcolrjN3evvNQsk43AxltyIyODpJyi57Ixuw0pg2devzWC3f0O26c14GMMaxbmlTiRXNO-RQtiPjxTFQlmrd-scyv_TdkBa67W2vHOiqAqOBz2Ae1yIIo0sNik4NP9MI9PdMOXgKufSMP9NC35ahISwphD3csTuiPmHT2Eqv9K3ikIu3fn-UZQQlbOjigIiAY-HwhgkIGjoaHgkOP6uwpSodZ4dPvo4QTvml2AMCksoEB_OQvYVSvRbWTE6mrlfJa-zi7W7YZOYinKN0jKgFCHsvos5xjDSidMNh90CpUz26k0zspijYLPpX7ibP_Thv_-GEts_BjXke33Uuk6dUG6a41cUDarOEHkNSKUylbV-ECXv_ZtHU6Sw5oH6wGtS8fKuvc651aHT6VItc9In3XRnB-YHPwwQzmYHbnT5XOh4ubx4ft7UBWTQNIGu9G2-v2bF4QIjR03ck9b_f1B3jeT7x6o16sFlmGP6WGpvcRPIze-kToc2CxppnPaOtiVG8O0RGyHOJ4kNLaCLZUfRxiTPszbbm5phE22qF26nFSKiHTAy4an4_FFaYCJjUivK_RQoOehbTGNr0x4HPPTl5O9mc2IszYzTK2ibmnkb4HxDs11kkwv7t_A9lR1_J4XBSmobjrcjF04a_UxjUbyRv0BnRLxZxl88h66wjgs0Nj_Dvo5GZKXsn08hC2akBkjMLnwgJJuLnz_acuJYhxsWA-x3zL4LFZoBm00]--></g></svg>