<svg xmlns="http://www.w3.org/2000/svg" xmlns:xlink="http://www.w3.org/1999/xlink" contentStyleType="text/css" data-diagram-type="DESCRIPTION" height="1024px" preserveAspectRatio="none" style="width:1193px;height:1024px;background:#FFFFFF;" version="1.1" viewBox="0 0 1193 1024" width="1193px" zoomAndPan="magnify"><title>Cas d'utilisation &#8212; Surveillant de Service</title><defs/><g><g class="title" data-source-line="39"><text fill="#000000" font-family="Segoe UI" font-size="14" font-weight="bold" lengthAdjust="spacing" textLength="268.0439" x="458.478" y="25.1074">Cas d'utilisation &#8212; Surveillant de Service</text><text fill="#000000" font-family="Segoe UI" font-size="14" font-weight="bold" lengthAdjust="spacing" textLength="165.1289" x="509.9355" y="43.7285">niveau 5 &#183; 19 permissions</text></g><!--cluster P0--><g class="cluster" data-entity="P0" data-source-line="47" data-uid="ent0005" id="cluster_P0"><path d="M185.5,176.2422 L330.4824,176.2422 A3.75,3.75 0 0 1 332.9824,178.7422 L339.9824,198.2031 L384.5,198.2031 A2.5,2.5 0 0 1 387,200.7031 L387,495.7422 A2.5,2.5 0 0 1 384.5,498.2422 L185.5,498.2422 A2.5,2.5 0 0 1 183,495.7422 L183,178.7422 A2.5,2.5 0 0 1 185.5,176.2422" fill="#F8FAFC" style="stroke:#94A3B8;stroke-width:1.5;"/><line style="stroke:#94A3B8;stroke-width:1.5;" x1="183" x2="339.9824" y1="198.2031" y2="198.2031"/><text fill="#000000" font-family="Segoe UI" font-size="12" font-weight="bold" lengthAdjust="spacing" textLength="143.9824" x="187" y="191.1914">H&#233;rit&#233; du M&#233;decin Senior</text></g><!--cluster P1--><g class="cluster" data-entity="P1" data-source-line="54" data-uid="ent0010" id="cluster_P1"><path d="M470.5,126.2422 L598.2559,126.2422 A3.75,3.75 0 0 1 600.7559,128.7422 L607.7559,148.2031 L1183.5,148.2031 A2.5,2.5 0 0 1 1186,150.7031 L1186,392.7422 A2.5,2.5 0 0 1 1183.5,395.2422 L470.5,395.2422 A2.5,2.5 0 0 1 468,392.7422 L468,128.7422 A2.5,2.5 0 0 1 470.5,126.2422" fill="#F8FAFC" style="stroke:#94A3B8;stroke-width:1.5;"/><line style="stroke:#94A3B8;stroke-width:1.5;" x1="468" x2="607.7559" y1="148.2031" y2="148.2031"/><text fill="#000000" font-family="Segoe UI" font-size="12" font-weight="bold" lengthAdjust="spacing" textLength="126.7559" x="472" y="141.1914">&#201;laboration du tableur</text></g><!--cluster P2--><g class="cluster" data-entity="P2" data-source-line="65" data-uid="ent0019" id="cluster_P2"><path d="M486.5,727.2422 L644.2383,727.2422 A3.75,3.75 0 0 1 646.7383,729.7422 L653.7383,749.2031 L665.5,749.2031 A2.5,2.5 0 0 1 668,751.7031 L668,940.7422 A2.5,2.5 0 0 1 665.5,943.2422 L486.5,943.2422 A2.5,2.5 0 0 1 484,940.7422 L484,729.7422 A2.5,2.5 0 0 1 486.5,727.2422" fill="#F8FAFC" style="stroke:#94A3B8;stroke-width:1.5;"/><line style="stroke:#94A3B8;stroke-width:1.5;" x1="484" x2="653.7383" y1="749.2031" y2="749.2031"/><text fill="#000000" font-family="Segoe UI" font-size="12" font-weight="bold" lengthAdjust="spacing" textLength="156.7383" x="488" y="742.1914">Absences et remplacements</text></g><!--cluster P3--><g class="cluster" data-entity="P3" data-source-line="71" data-uid="ent0023" id="cluster_P3"><path d="M492,403.2422 L570.9297,403.2422 A3.75,3.75 0 0 1 573.4297,405.7422 L580.4297,425.2031 L660,425.2031 A2.5,2.5 0 0 1 662.5,427.7031 L662.5,716.7422 A2.5,2.5 0 0 1 660,719.2422 L492,719.2422 A2.5,2.5 0 0 1 489.5,716.7422 L489.5,405.7422 A2.5,2.5 0 0 1 492,403.2422" fill="#F8FAFC" style="stroke:#94A3B8;stroke-width:1.5;"/><line style="stroke:#94A3B8;stroke-width:1.5;" x1="489.5" x2="580.4297" y1="425.2031" y2="425.2031"/><text fill="#000000" font-family="Segoe UI" font-size="12" font-weight="bold" lengthAdjust="spacing" textLength="77.9297" x="493.5" y="418.1914">Vie du service</text></g><!--entity MED--><g class="entity" data-entity="MED" data-source-line="43" data-uid="ent0002" id="entity_MED"><ellipse cx="49.8193" cy="366.7422" fill="#E6F4F1" rx="8" ry="8" style="stroke:#0F766E;stroke-width:0.5;"/><path d="M49.8193,374.7422 L49.8193,401.7422 M36.8193,382.7422 L62.8193,382.7422 M49.8193,401.7422 L36.8193,416.7422 M49.8193,401.7422 L62.8193,416.7422" fill="none" style="stroke:#0F766E;stroke-width:0.5;"/><text fill="#000000" font-family="Segoe UI" font-size="12" font-weight="bold" lengthAdjust="spacing" textLength="87.6387" x="6" y="431.1914">M&#233;decin Senior</text></g><!--entity SS--><g class="entity" data-entity="SS" data-source-line="44" data-uid="ent0003" id="entity_SS"><ellipse cx="285.1875" cy="516.7422" fill="#E6F4F1" rx="8" ry="8" style="stroke:#0F766E;stroke-width:0.5;"/><path d="M285.1875,524.7422 L285.1875,551.7422 M272.1875,532.7422 L298.1875,532.7422 M285.1875,551.7422 L272.1875,566.7422 M285.1875,551.7422 L298.1875,566.7422" fill="none" style="stroke:#0F766E;stroke-width:0.5;"/><text fill="#000000" font-family="Segoe UI" font-size="12" font-weight="bold" lengthAdjust="spacing" textLength="60.375" x="255" y="581.1914">Surveillant</text><text fill="#000000" font-family="Segoe UI" font-size="12" font-weight="bold" lengthAdjust="spacing" textLength="57.3926" x="255" y="597.1523">de Service</text></g><g class="entity" data-entity="N1" data-source-line="103" data-uid="ent0049" id="entity_N1"><path d="M131,62.2422 L131,168.0078 A0,0 0 0 0 131,168.0078 L438.6172,168.0078 A0,0 0 0 0 438.6172,168.0078 L438.6172,151.6176 L510.2911,162.5839 L438.6172,143.6176 L438.6172,72.2422 L428.6172,62.2422 L131,62.2422 A0,0 0 0 0 131,62.2422" fill="#FEF9C3" style="stroke:#B4530A;stroke-width:0.5;"/><path d="M428.6172,62.2422 L428.6172,72.2422 L438.6172,72.2422 L428.6172,62.2422" fill="#FEF9C3" style="stroke:#B4530A;stroke-width:0.5;"/><text fill="#000000" font-family="Segoe UI" font-size="12" lengthAdjust="spacing" textLength="286.6172" x="137" y="80.1914">&#171; Proposer une modification &#187; n'est ouvert qu'une fois</text><text fill="#000000" font-family="Segoe UI" font-size="12" lengthAdjust="spacing" textLength="284.7188" x="137" y="96.1523">le planning envoy&#233; et mis en marche, et seulement au</text><text fill="#000000" font-family="Segoe UI" font-size="12" lengthAdjust="spacing" textLength="281.168" x="137" y="112.1133">surveillant membre du service concern&#233;. C'est le Chef</text><text fill="#000000" font-family="Segoe UI" font-size="12" lengthAdjust="spacing" textLength="261.5684" x="137" y="128.0742">de Service qui arbitre ensuite ces propositions : le</text><text fill="#000000" font-family="Segoe UI" font-size="12" lengthAdjust="spacing" textLength="276.9375" x="137" y="144.0352">couple proposer / d&#233;cider s&#233;pare volontairement les</text><text fill="#000000" font-family="Segoe UI" font-size="12" lengthAdjust="spacing" textLength="110.3496" x="137" y="159.9961">deux responsabilit&#233;s.</text></g><g class="entity" data-entity="N2" data-source-line="112" data-uid="ent0050" id="entity_N2"><path d="M131,814.2422 L131,872.125 A0,0 0 0 0 131,872.125 L439.2207,872.125 A0,0 0 0 0 439.2207,872.125 L439.2207,847.2422 L502.2058,843.2422 L439.2207,839.2422 L439.2207,824.2422 L429.2207,814.2422 L131,814.2422 A0,0 0 0 0 131,814.2422" fill="#FEF9C3" style="stroke:#B4530A;stroke-width:0.5;"/><path d="M429.2207,814.2422 L429.2207,824.2422 L439.2207,824.2422 L429.2207,814.2422" fill="#FEF9C3" style="stroke:#B4530A;stroke-width:0.5;"/><text fill="#000000" font-family="Segoe UI" font-size="12" lengthAdjust="spacing" textLength="255.375" x="137" y="832.1914">Le contr&#244;le de disponibilit&#233; interdit d'affecter un</text><text fill="#000000" font-family="Segoe UI" font-size="12" lengthAdjust="spacing" textLength="287.2207" x="137" y="848.1523">agent dont un cong&#233; approuv&#233; recouvre la p&#233;riode de</text><text fill="#000000" font-family="Segoe UI" font-size="12" lengthAdjust="spacing" textLength="252.7969" x="137" y="864.1133">garde &#8212; r&#232;gle m&#233;tier explicite de la plateforme.</text></g><!--entity UC_PLAN--><g class="entity" data-entity="UC_PLAN" data-source-line="48" data-uid="ent0006" id="entity_UC_PLAN"><ellipse cx="284.7898" cy="318.1267" fill="#F1F5F9" rx="66.2898" ry="29.8845" style="stroke:#94A3B8;stroke-width:0.5;"/><text fill="#475569" font-family="Segoe UI" font-size="12" font-style="italic" lengthAdjust="spacing" textLength="41.9531" x="263.8132" y="305.2227">&#171;h&#233;rit&#233;&#187;</text><text fill="#475569" font-family="Segoe UI" font-size="12" lengthAdjust="spacing" textLength="112.7227" x="228.4284" y="321.1836">Consulter le planning</text><text fill="#475569" font-family="Segoe UI" font-size="12" lengthAdjust="spacing" textLength="69.1523" x="250.2136" y="337.1446">et ses gardes</text></g><!--entity UC_ABS--><g class="entity" data-entity="UC_ABS" data-source-line="49" data-uid="ent0007" id="entity_UC_ABS"><ellipse cx="284.7561" cy="396.4444" fill="#F1F5F9" rx="66.2561" ry="29.7022" style="stroke:#94A3B8;stroke-width:0.5;"/><text fill="#475569" font-family="Segoe UI" font-size="12" font-style="italic" lengthAdjust="spacing" textLength="41.9531" x="263.7795" y="383.7141">&#171;h&#233;rit&#233;&#187;</text><text fill="#475569" font-family="Segoe UI" font-size="12" lengthAdjust="spacing" textLength="113.4316" x="228.0402" y="399.675">D&#233;clarer une absence</text><text fill="#475569" font-family="Segoe UI" font-size="12" lengthAdjust="spacing" textLength="66.6855" x="251.4133" y="415.6359">ou un cong&#233;</text></g><!--entity UC_REMP0--><g class="entity" data-entity="UC_REMP0" data-source-line="50" data-uid="ent0008" id="entity_UC_REMP0"><ellipse cx="284.8271" cy="467.3988" fill="#F1F5F9" rx="93.8271" ry="23.1567" style="stroke:#94A3B8;stroke-width:0.5;"/><text fill="#475569" font-family="Segoe UI" font-size="12" font-style="italic" lengthAdjust="spacing" textLength="41.9531" x="263.8505" y="460.2481">&#171;h&#233;rit&#233;&#187;</text><text fill="#475569" font-family="Segoe UI" font-size="12" lengthAdjust="spacing" textLength="143.8418" x="212.9062" y="476.209">Proposer un remplacement</text></g><!--entity UC_CPT--><g class="entity" data-entity="UC_CPT" data-source-line="51" data-uid="ent0009" id="entity_UC_CPT"><ellipse cx="285.1469" cy="236.1965" fill="#F1F5F9" rx="73.1469" ry="33.4543" style="stroke:#94A3B8;stroke-width:0.5;"/><text fill="#475569" font-family="Segoe UI" font-size="12" font-style="italic" lengthAdjust="spacing" textLength="41.9531" x="264.1704" y="219.5967">&#171;h&#233;rit&#233;&#187;</text><text fill="#475569" font-family="Segoe UI" font-size="12" lengthAdjust="spacing" textLength="94.9219" x="237.686" y="235.5576">G&#233;rer son compte</text><text fill="#475569" font-family="Segoe UI" font-size="12" lengthAdjust="spacing" textLength="110.291" x="230.0014" y="251.5185">et sa communication</text></g><!--entity UC_TABLEUR--><g class="entity" data-entity="UC_TABLEUR" data-source-line="55" data-uid="ent0011" id="entity_UC_TABLEUR"><ellipse cx="575.8466" cy="176.2781" fill="#EEF2FF" rx="65.3466" ry="23.5359" style="stroke:#1B4FCA;stroke-width:0.5;"/><text fill="#000000" font-family="Segoe UI" font-size="12" lengthAdjust="spacing" textLength="96.9141" x="527.3895" y="175.8173">&#201;laborer le tableur</text><text fill="#000000" font-family="Segoe UI" font-size="12" lengthAdjust="spacing" textLength="47.3145" x="552.1893" y="191.7782">de garde</text></g><!--entity UC_AFFECTER--><g class="entity" data-entity="UC_AFFECTER" data-source-line="56" data-uid="ent0012" id="entity_UC_AFFECTER"><ellipse cx="840.9399" cy="233.3766" fill="#EEF2FF" rx="63.9399" ry="24.1344" style="stroke:#1B4FCA;stroke-width:0.5;"/><text fill="#000000" font-family="Segoe UI" font-size="12" lengthAdjust="spacing" textLength="92.0449" x="794.9175" y="231.9843">Affecter un agent</text><text fill="#000000" font-family="Segoe UI" font-size="12" lengthAdjust="spacing" textLength="63.2227" x="809.3286" y="247.9452">&#224; une garde</text></g><!--entity UC_DISPO--><g class="entity" data-entity="UC_DISPO" data-source-line="57" data-uid="ent0013" id="entity_UC_DISPO"><ellipse cx="1092.133" cy="233.0894" fill="#EEF2FF" rx="86.133" ry="23.3472" style="stroke:#1B4FCA;stroke-width:0.5;"/><text fill="#000000" font-family="Segoe UI" font-size="12" lengthAdjust="spacing" textLength="130.4238" x="1026.921" y="232.9306">Contr&#244;ler la disponibilit&#233;</text><text fill="#000000" font-family="Segoe UI" font-size="12" lengthAdjust="spacing" textLength="52.5996" x="1065.8332" y="248.8916">de l'agent</text></g><!--entity UC_BROUILLON--><g class="entity" data-entity="UC_BROUILLON" data-source-line="58" data-uid="ent0014" id="entity_UC_BROUILLON"><ellipse cx="841.2253" cy="173.1872" fill="#EEF2FF" rx="75.2253" ry="17.4451" style="stroke:#1B4FCA;stroke-width:0.5;"/><text fill="#000000" font-family="Segoe UI" font-size="12" lengthAdjust="spacing" textLength="120.4043" x="781.0232" y="177.6677">Enregistrer le brouillon</text></g><!--entity UC_EXPORT--><g class="entity" data-entity="UC_EXPORT" data-source-line="59" data-uid="ent0015" id="entity_UC_EXPORT"><ellipse cx="575.8327" cy="242.4193" fill="#EEF2FF" rx="75.3327" ry="24.6771" style="stroke:#1B4FCA;stroke-width:0.5;"/><text fill="#000000" font-family="Segoe UI" font-size="12" lengthAdjust="spacing" textLength="106.5176" x="522.5739" y="240.2124">Exporter le planning</text><text fill="#000000" font-family="Segoe UI" font-size="12" lengthAdjust="spacing" textLength="87.5742" x="532.0456" y="256.1733">(Excel, CSV, PDF)</text></g><!--entity UC_SOUMETTRE--><g class="entity" data-entity="UC_SOUMETTRE" data-source-line="60" data-uid="ent0016" id="entity_UC_SOUMETTRE"><ellipse cx="576.0429" cy="302.4508" fill="#EEF2FF" rx="74.0429" ry="17.2086" style="stroke:#1B4FCA;stroke-width:0.5;"/><text fill="#000000" font-family="Segoe UI" font-size="12" lengthAdjust="spacing" textLength="117.5566" x="517.2645" y="306.9312">Soumettre le planning</text></g><!--entity UC_NOTIF_SG--><g class="entity" data-entity="UC_NOTIF_SG" data-source-line="61" data-uid="ent0017" id="entity_UC_NOTIF_SG"><ellipse cx="841.0815" cy="302.3865" fill="#EEF2FF" rx="67.0815" ry="23.6443" style="stroke:#1B4FCA;stroke-width:0.5;"/><text fill="#000000" font-family="Segoe UI" font-size="12" lengthAdjust="spacing" textLength="52.5586" x="814.8022" y="296.0189">Notifier le</text><text fill="#000000" font-family="Segoe UI" font-size="12" lengthAdjust="spacing" textLength="99.0879" x="791.5375" y="311.9798">Surveillant G&#233;n&#233;ral</text></g><!--entity UC_PROPOSER--><g class="entity" data-entity="UC_PROPOSER" data-source-line="62" data-uid="ent0018" id="entity_UC_PROPOSER"><ellipse cx="575.7754" cy="362.2414" fill="#EEF2FF" rx="99.7754" ry="24.9992" style="stroke:#1B4FCA;stroke-width:0.5;"/><text fill="#000000" font-family="Segoe UI" font-size="12" lengthAdjust="spacing" textLength="140.4258" x="505.5625" y="359.5625">Proposer une modification</text><text fill="#000000" font-family="Segoe UI" font-size="12" lengthAdjust="spacing" textLength="125.1445" x="513.2031" y="375.5235">sur planning en vigueur</text></g><!--entity UC_ABS_VALID--><g class="entity" data-entity="UC_ABS_VALID" data-source-line="66" data-uid="ent0020" id="entity_UC_ABS_VALID"><ellipse cx="576.1757" cy="843.4355" fill="#EEF2FF" rx="73.6757" ry="24.1934" style="stroke:#1B4FCA;stroke-width:0.5;"/><text fill="#000000" font-family="Segoe UI" font-size="12" lengthAdjust="spacing" textLength="106.4531" x="522.9491" y="841.9535">Valider une absence</text><text fill="#000000" font-family="Segoe UI" font-size="12" lengthAdjust="spacing" textLength="74.8418" x="538.7548" y="857.9144">de son service</text></g><!--entity UC_REMP_CREER--><g class="entity" data-entity="UC_REMP_CREER" data-source-line="67" data-uid="ent0021" id="entity_UC_REMP_CREER"><ellipse cx="575.9648" cy="777.4821" fill="#EEF2FF" rx="83.9648" ry="23.7399" style="stroke:#1B4FCA;stroke-width:0.5;"/><text fill="#000000" font-family="Segoe UI" font-size="12" lengthAdjust="spacing" textLength="124.6172" x="513.6562" y="776.6995">Cr&#233;er un remplacement</text><text fill="#000000" font-family="Segoe UI" font-size="12" lengthAdjust="spacing" textLength="70.3828" x="540.7734" y="792.6604">en surcouche</text></g><!--entity UC_REMP_MAJ--><g class="entity" data-entity="UC_REMP_MAJ" data-source-line="68" data-uid="ent0022" id="entity_UC_REMP_MAJ"><ellipse cx="576.205" cy="910.0925" fill="#EEF2FF" rx="65.205" ry="24.3503" style="stroke:#1B4FCA;stroke-width:0.5;"/><text fill="#000000" font-family="Segoe UI" font-size="12" lengthAdjust="spacing" textLength="69.2109" x="541.5996" y="904.8119">Mettre &#224; jour</text><text fill="#000000" font-family="Segoe UI" font-size="12" lengthAdjust="spacing" textLength="93.0059" x="529.7021" y="920.7728">un remplacement</text></g><!--entity UC_APPEL--><g class="entity" data-entity="UC_APPEL" data-source-line="72" data-uid="ent0024" id="entity_UC_APPEL"><ellipse cx="575.9428" cy="445.4307" fill="#EEF2FF" rx="68.9428" ry="16.1886" style="stroke:#1B4FCA;stroke-width:0.5;"/><text fill="#000000" font-family="Segoe UI" font-size="12" lengthAdjust="spacing" textLength="105" x="523.4428" y="449.9112">Faire l'appel du jour</text></g><!--entity UC_INCIDENT--><g class="entity" data-entity="UC_INCIDENT" data-source-line="73" data-uid="ent0025" id="entity_UC_INCIDENT"><ellipse cx="575.9824" cy="495.4387" fill="#EEF2FF" rx="68.9824" ry="16.1965" style="stroke:#1B4FCA;stroke-width:0.5;"/><text fill="#000000" font-family="Segoe UI" font-size="12" lengthAdjust="spacing" textLength="105.0996" x="523.4326" y="499.9191">Signaler un incident</text></g><!--entity UC_ALERTE--><g class="entity" data-entity="UC_ALERTE" data-source-line="74" data-uid="ent0026" id="entity_UC_ALERTE"><ellipse cx="576.2231" cy="554.4444" fill="#EEF2FF" rx="78.7231" ry="25.2022" style="stroke:#1B4FCA;stroke-width:0.5;"/><text fill="#000000" font-family="Segoe UI" font-size="12" lengthAdjust="spacing" textLength="101.4199" x="525.5132" y="550.4168">Prendre en compte</text><text fill="#000000" font-family="Segoe UI" font-size="12" lengthAdjust="spacing" textLength="108.873" x="521.7866" y="566.3777">une alerte de service</text></g><!--entity UC_PORTFOLIO--><g class="entity" data-entity="UC_PORTFOLIO" data-source-line="75" data-uid="ent0027" id="entity_UC_PORTFOLIO"><ellipse cx="576.0762" cy="621.3052" fill="#EEF2FF" rx="77.0762" ry="24.063" style="stroke:#1B4FCA;stroke-width:0.5;"/><text fill="#000000" font-family="Segoe UI" font-size="12" lengthAdjust="spacing" textLength="112.2656" x="519.9434" y="620.0221">Consulter le portfolio</text><text fill="#000000" font-family="Segoe UI" font-size="12" lengthAdjust="spacing" textLength="74.8418" x="538.6553" y="635.983">de son service</text></g><!--entity UC_ANNUAIRE--><g class="entity" data-entity="UC_ANNUAIRE" data-source-line="76" data-uid="ent0028" id="entity_UC_ANNUAIRE"><ellipse cx="575.9936" cy="687.2803" fill="#EEF2FF" rx="72.4936" ry="24.0381" style="stroke:#1B4FCA;stroke-width:0.5;"/><text fill="#000000" font-family="Segoe UI" font-size="12" lengthAdjust="spacing" textLength="105.4453" x="523.271" y="686.0354">Consulter l'annuaire</text><text fill="#000000" font-family="Segoe UI" font-size="12" lengthAdjust="spacing" textLength="69.5332" x="541.227" y="701.9963">du personnel</text></g><g class="link" data-entity-1="MED" data-entity-2="SS" data-uid="lnk4" id="link_MED_SS"><polygon fill="none" points="71.9262,434.4656,76.3695,452.9117,86.5485,446.5565,71.9262,434.4656" style="stroke:#334155;stroke-width:1;"/><path d="M81.459,449.7341 C95.5258,472.2648 106.43,484.4797 131,502.2422 C168.8549,529.6088 222.1891,543.3738 254.8545,549.6537" fill="none" style="stroke:#334155;stroke-width:1;"/></g><g class="link" data-entity-1="MED" data-entity-2="UC_PLAN" data-uid="lnk29" id="link_MED_UC_PLAN"><polygon fill="#334155" points="218.4039,332.5236,208.7113,330.7763,213.5471,333.7115,210.6119,338.5472,218.4039,332.5236" style="stroke:#334155;stroke-width:1;"/><path d="M94.3792,373.8221 C106.0807,368.2779 118.8653,362.666 131,358.2422 C159.1162,347.9923 185.1988,340.6447 212.5757,333.949" fill="none" style="stroke:#334155;stroke-width:1;"/></g><g class="link" data-entity-1="MED" data-entity-2="UC_ABS" data-uid="lnk30" id="link_MED_UC_ABS"><polygon fill="#334155" points="218.34,396.2422,209.34,392.2422,213.34,396.2422,209.34,400.2422,218.34,396.2422" style="stroke:#334155;stroke-width:1;"/><path d="M94.0073,396.2422 C128.8528,396.2422 172.5243,396.2422 212.34,396.2422" fill="none" style="stroke:#334155;stroke-width:1;"/></g><g class="link" data-entity-1="MED" data-entity-2="UC_REMP0" data-uid="lnk31" id="link_MED_UC_REMP0"><polygon fill="#334155" points="190.7696,451.5816,182.8454,445.7328,185.8875,450.5021,181.1182,453.5441,190.7696,451.5816" style="stroke:#334155;stroke-width:1;"/><path d="M94.1834,419.707 C105.8864,425.3935 118.7207,431.0378 131,435.2422 C149.9987,441.7474 164.9396,445.8701 184.9111,450.2862" fill="none" style="stroke:#334155;stroke-width:1;"/></g><g class="link" data-entity-1="MED" data-entity-2="UC_CPT" data-uid="lnk32" id="link_MED_UC_CPT"><polygon fill="#334155" points="211.669,245.8432,202.0021,243.9588,206.7958,246.9622,203.7925,251.7559,211.669,245.8432" style="stroke:#334155;stroke-width:1;"/><path d="M68.2977,358.04 C81.8629,332.2011 103.1126,299.2574 131,279.2422 C154.5366,262.3497 178.6569,253.4232 205.8212,247.1859" fill="none" style="stroke:#334155;stroke-width:1;"/></g><g class="link" data-entity-1="SS" data-entity-2="UC_TABLEUR" data-uid="lnk33" id="link_SS_UC_TABLEUR"><polygon fill="#334155" points="510.2622,183.2301,500.4944,181.9697,505.4709,184.6593,502.7812,189.6359,510.2622,183.2301" style="stroke:#334155;stroke-width:1;"/><path d="M315.0205,553.4084 C350.4532,550.6819 409.3159,540.2858 439,502.2422 C479.3856,450.4834 425.062,257.9041 468,208.2422 C478.8426,195.7017 488.6284,189.6835 504.5126,184.9452" fill="none" style="stroke:#334155;stroke-width:1;"/></g><g class="link" data-entity-1="SS" data-entity-2="UC_EXPORT" data-uid="lnk34" id="link_SS_UC_EXPORT"><polygon fill="#334155" points="500.4946,254.2996,490.6506,253.9891,495.8638,256.1852,493.6676,261.3984,500.4946,254.2996" style="stroke:#334155;stroke-width:1;"/><path d="M315.1617,553.2512 C350.455,550.3521 408.887,539.7675 439,502.2422 C470.6903,462.7513 434.6371,314.3305 468,276.2422 C476.6691,266.3452 482.6486,261.5663 494.9376,256.5624" fill="none" style="stroke:#334155;stroke-width:1;"/></g><g class="link" data-entity-1="SS" data-entity-2="UC_SOUMETTRE" data-uid="lnk35" id="link_SS_UC_SOUMETTRE"><polygon fill="#334155" points="501.7778,308.0378,491.9839,306.9986,497.02,309.5751,494.4436,314.6111,501.7778,308.0378" style="stroke:#334155;stroke-width:1;"/><path d="M315.1294,552.9436 C350.1098,549.724 407.9421,538.8055 439,502.2422 C464.3779,472.3657 441.3146,356.9568 468,328.2422 C477.0446,318.5098 483.3552,313.9902 496.0684,309.8825" fill="none" style="stroke:#334155;stroke-width:1;"/></g><g class="link" data-entity-1="SS" data-entity-2="UC_PROPOSER" data-uid="lnk36" id="link_SS_UC_PROPOSER"><polygon fill="#334155" points="482.0157,387.4735,472.3167,389.1847,477.869,390.2671,476.7865,395.8195,482.0157,387.4735" style="stroke:#334155;stroke-width:1;"/><path d="M315.0888,552.297 C349.4822,548.4258 406.1844,536.8508 439,502.2422 C471.7225,467.7318 435.3691,433.8392 468,399.2422 C472.1808,394.8095 471.942,394.2602 477.0396,390.8259" fill="none" style="stroke:#334155;stroke-width:1;"/></g><g class="link" data-entity-1="SS" data-entity-2="UC_ABS_VALID" data-uid="lnk37" id="link_SS_UC_ABS_VALID"><polygon fill="#334155" points="502.2996,830.1468,495.3027,823.2155,497.6245,828.3739,492.4661,830.6957,502.2996,830.1468" style="stroke:#334155;stroke-width:1;"/><path d="M315.1323,588.4558 C351.6435,632.4346 414.6779,712.1051 458,787.2422 C463.5677,796.8987 459.6932,802.8096 468,810.2422 C477.7788,818.9919 484.2297,823.2943 496.6895,828.0193" fill="none" style="stroke:#334155;stroke-width:1;"/></g><g class="link" data-entity-1="SS" data-entity-2="UC_REMP_CREER" data-uid="lnk38" id="link_SS_UC_REMP_CREER"><polygon fill="#334155" points="521.071,753.6976,514.7535,746.1419,516.5823,751.495,511.2293,753.3239,521.071,753.6976" style="stroke:#334155;stroke-width:1;"/><path d="M315.2645,586.406 C349.4502,622.7284 408.891,682.1162 468,723.2422 C484.3973,734.6508 498.157,742.4536 515.6846,751.0545" fill="none" style="stroke:#334155;stroke-width:1;"/></g><g class="link" data-entity-1="SS" data-entity-2="UC_REMP_MAJ" data-uid="lnk39" id="link_SS_UC_REMP_MAJ"><polygon fill="#334155" points="510.7372,899.6793,503.4224,893.0843,505.9839,898.128,500.9403,900.6895,510.7372,899.6793" style="stroke:#334155;stroke-width:1;"/><path d="M315.2758,597.4574 C347.819,646.5318 400.8148,729.6197 439,805.2422 C454.3641,835.6695 442.9516,853.1239 468,876.2422 C479.8885,887.2146 489.6118,892.7845 505.0333,897.8177" fill="none" style="stroke:#334155;stroke-width:1;"/></g><g class="link" data-entity-1="SS" data-entity-2="UC_APPEL" data-uid="lnk40" id="link_SS_UC_APPEL"><polygon fill="#334155" points="506.9753,454.6234,497.2457,453.0951,502.1464,455.9205,499.321,460.8212,506.9753,454.6234" style="stroke:#334155;stroke-width:1;"/><path d="M315.0007,548.959 C347.2972,542.0814 400.0728,527.8062 439,502.2422 C455.0434,491.7063 451.4594,479.9789 468,470.2422 C479.8367,463.2745 487.6845,459.8051 501.1807,456.1799" fill="none" style="stroke:#334155;stroke-width:1;"/></g><g class="link" data-entity-1="SS" data-entity-2="UC_INCIDENT" data-uid="lnk41" id="link_SS_UC_INCIDENT"><polygon fill="#334155" points="506.8434,509.1565,497.2252,507.0376,501.9445,510.1566,498.8254,514.8759,506.8434,509.1565" style="stroke:#334155;stroke-width:1;"/><path d="M315.0336,548.3149 C359.5494,539.2269 440.0243,522.7978 500.9647,510.3567" fill="none" style="stroke:#334155;stroke-width:1;"/></g><g class="link" data-entity-1="SS" data-entity-2="UC_ALERTE" data-uid="lnk42" id="link_SS_UC_ALERTE"><polygon fill="#334155" points="497.2452,554.2422,488.2452,550.2422,492.2452,554.2422,488.2452,558.2422,497.2452,554.2422" style="stroke:#334155;stroke-width:1;"/><path d="M315.0336,554.2422 C357.2592,554.2422 431.1285,554.2422 491.2452,554.2422" fill="none" style="stroke:#334155;stroke-width:1;"/></g><g class="link" data-entity-1="SS" data-entity-2="UC_PORTFOLIO" data-uid="lnk43" id="link_SS_UC_PORTFOLIO"><polygon fill="#334155" points="498.7693,603.5693,490.9052,597.6401,493.8985,602.4401,489.0985,605.4334,498.7693,603.5693" style="stroke:#334155;stroke-width:1;"/><path d="M315.0336,560.9732 C357.6171,570.8455 432.6399,588.2383 492.9243,602.2143" fill="none" style="stroke:#334155;stroke-width:1;"/></g><g class="link" data-entity-1="SS" data-entity-2="UC_ANNUAIRE" data-uid="lnk44" id="link_SS_UC_ANNUAIRE"><polygon fill="#334155" points="503.4789,667.4015,496.1845,660.7839,498.7305,665.8354,493.6789,668.3814,503.4789,667.4015" style="stroke:#334155;stroke-width:1;"/><path d="M315.023,572.6119 C350.1894,594.2917 411.7335,630.4008 468,654.2422 C479.2765,659.0203 485.7849,661.566 497.7808,665.5222" fill="none" style="stroke:#334155;stroke-width:1;"/></g><g class="link" data-entity-1="UC_TABLEUR" data-entity-2="UC_AFFECTER" data-uid="lnk45" id="link_UC_TABLEUR_UC_AFFECTER"><polygon fill="#334155" points="776.939,219.575,768.9904,213.7594,772.0524,218.5159,767.2959,221.5779,776.939,219.575" style="stroke:#334155;stroke-width:1;"/><path d="M641.6739,190.259 C682.8912,199.192 730.1743,209.4397 771.0751,218.3041" fill="none" style="stroke:#334155;stroke-width:1;stroke-dasharray:7,7;"/><text fill="#000000" font-family="Segoe UI" font-size="12" lengthAdjust="spacing" textLength="50.4199" x="696" y="199.1914">&#171;include&#187;</text></g><g class="link" data-entity-1="UC_TABLEUR" data-entity-2="UC_BROUILLON" data-uid="lnk46" id="link_UC_TABLEUR_UC_BROUILLON"><polygon fill="#334155" points="765.801,174.0886,756.756,170.1915,760.8013,174.1456,756.8472,178.191,765.801,174.0886" style="stroke:#334155;stroke-width:1;"/><path d="M641.6739,175.5045 C679.2409,175.0759 720.7187,174.6028 759.8014,174.157" fill="none" style="stroke:#334155;stroke-width:1;stroke-dasharray:7,7;"/><text fill="#000000" font-family="Segoe UI" font-size="12" lengthAdjust="spacing" textLength="50.4199" x="696" y="171.1914">&#171;include&#187;</text></g><g class="link" data-entity-1="UC_AFFECTER" data-entity-2="UC_DISPO" data-uid="lnk47" id="link_UC_AFFECTER_UC_DISPO"><polygon fill="#334155" points="1005.8172,233.2422,996.8172,229.2422,1000.8172,233.2422,996.8172,237.2422,1005.8172,233.2422" style="stroke:#334155;stroke-width:1;"/><path d="M905.1551,233.2422 C935.7,233.2422 966.8126,233.2422 999.8172,233.2422" fill="none" style="stroke:#334155;stroke-width:1;stroke-dasharray:7,7;"/><text fill="#000000" font-family="Segoe UI" font-size="12" lengthAdjust="spacing" textLength="50.4199" x="936" y="229.1914">&#171;include&#187;</text></g><g class="link" data-entity-1="UC_SOUMETTRE" data-entity-2="UC_NOTIF_SG" data-uid="lnk48" id="link_UC_SOUMETTRE_UC_NOTIF_SG"><polygon fill="#334155" points="773.8701,302.2422,764.8701,298.2422,768.8701,302.2422,764.8701,306.2422,773.8701,302.2422" style="stroke:#334155;stroke-width:1;"/><path d="M650.2602,302.2422 C689.018,302.2422 730.2344,302.2422 767.8701,302.2422" fill="none" style="stroke:#334155;stroke-width:1;stroke-dasharray:7,7;"/><text fill="#000000" font-family="Segoe UI" font-size="12" lengthAdjust="spacing" textLength="50.4199" x="696" y="298.1914">&#171;include&#187;</text></g><g class="legend" data-source-line="117"><rect fill="none" height="47.2422" rx="7.5" ry="7.5" style="stroke:#000000;stroke-width:1;" width="277.0664" x="895.9336" y="957.2422"/><text fill="#000000" font-family="Segoe UI" font-size="14" lengthAdjust="spacing" textLength="167.624" x="900.9336" y="977.3496">Bleu : cas propres &#224; ce r&#244;le.</text><text fill="#000000" font-family="Segoe UI" font-size="14" lengthAdjust="spacing" textLength="267.0664" x="900.9336" y="995.9707">Gris : capacit&#233;s h&#233;rit&#233;es du M&#233;decin Senior.</text></g><!--SRC=[VLV1RkCs4BtpAwRf8IsmITT9dDqKYm2o8srTEBPXEq4F0G9QeXrsAL8b9M-sxGAzzjuFwB56hmLww6tz9_sI3YdBekoaELdaS8RpviqRvhDCqqLAGT0FgiZ1f2odaXBpZikCQfh2ZCRl5beLCkageJHy7ha_po9XSrg8F58o7z2KmOGj58ERtjCc4_uZWzQ9jsaUQABUSxc0EHM6UJk1rkhz9kpfwLchtVOturpfZj89qnkJbz6hy_DmpsGtWV0yEejQksRkRla7mM2cHEBjtXWMKyCQaLgTiwWRF66q5okCJXfW5QKX_4HsRD-yULYlDC_NgyjB1BaLjQCBuWLjxb-S1QUTryHU-edTirVjzla5-UZ57M4qkcXciN6oRxHNyjTH47Kzmu7Adx0AeulkwQwL7x1prZvz6H2Iynnnxb83oM6HSy4DpRcIyEylly6aq4l6XQ0oHzeWcVIIn-nEIhvaj80sVFeRMXUGCProO_2K8KImUGwv0iqN3tYAQnPRVuHGMrauk5wl4XPpYTuaL_e0CF9rU5LjUo7lP1tJcKqc12tXpSz7H_OtoKg8uE2R3TwG5F2K_z5Bh35iwttGnPjY2p0Dc7g6iIGo_auox3bcO44H9kCEtdJlH_rW07v9VKTNwrKig4P7XMH0PuP9Yuygy1jY9HVhLUKdw4oUTJFIAbF6UG7DKhnHp58cy-hiEBp659ux_HPNyQnHDcIQvQpCXDglj90yTWMjV7L7qwQdZnwGwry5dIbTCW31pEbCi683Ogi9uiQs175Zw4hcyAl2JODEFxmP-mU3-HmvKMQBKMsXrxyx01idWoWAkzDml5EuNA__4ZOeHNAPJ4a-Gz9YAYwsE7GUAnzNlSbew3i8fMOBRlBDjMVOCqYs6ftEU7ZJw_U7WyQXnqpfFRPy4Jx6JBo0xkJs1OokeYyh7-5te-5uwZkOg0Ar78Fw7YhpoV3cEfnEnw5_0jkLpxaBUIVzDiHYIwmT5TNnmN3QY-udRv_X4uDK9UYg9C4TybvlRm1Cmf8lYgh2bktZuMWuGT1zLWGbhmqWhNnwbZqoEcdoufOAdkns19R6yjDutLpsnFrjqEzTDMgirwlzLa1Eu_52nwg87vZV6FVTSTXaoNM9DPBgUsKv-JzTTNyTVDl8zPOpItp_egFJPe8HvTenBSkOiCOsoZQbqIZiDshF5vAACY4kOuIcla5lqErTXODfitPC9kYVrTtia4GNERCgl8jXFnnFm-VL3PaxLuAhvsfWkHeD-xtXCouEaIk5pHWT55RgqOTaM_e5Wy5Dq4Fo8eXMd8-EBYlLzB-nqlwd4pH_0LM9aCca-gnKerxPD5MzKBTDlRPbRxrKKwnUyrYpisZPu9rrjQo_j-NoJ4hqlIjiuVICAen8dHeS7r_wAWTVeoeZFqIHC1JbVSEjCkrRRdriJ9tgxPjj4QliAkdOCIKItmgsl8CM-VGdF2icyEaVa8VCvA2A9R8JVYWEhSrSSKCyeKCgBzK7dCue7_XEiCnEgSOkVW5kuXR2jINGWXXFwLAMphJVZ7QWnaoZ_1r3ryMr3vS7DYVrEm7lm87g6SzT2vc2OofMkZAN1RVtDfYlO0IL9BEthDBx2XASvawwp7g5hoO6ItmgoToItrrGC8EXYaTK4pju3DrC7dDCi6V1mkQ1TqBwxihbmBATsvnNg0ROO0d7Hz8XhKSYSGCC4ZnOFo80jGP7rH9_uNiAVrW1ef3PAQwiPqRSx7IlDht-Ou41q_KgjnE4FMQ2nxmK3tj8q9pDbKwPVst15lR3lTf81sSvWeHQuE31TAsO8hekbMFoLdFZzb4s7G1GlIVGSlyDvkAK0GWvX436scejFh9SS0DpeNByLmT_aa4BsUbBmE1air1tydy0]--></g></svg>