<svg xmlns="http://www.w3.org/2000/svg" xmlns:xlink="http://www.w3.org/1999/xlink" contentStyleType="text/css" data-diagram-type="CLASS" height="939px" preserveAspectRatio="none" style="width:1517px;height:939px;background:#FFFFFF;" version="1.1" viewBox="0 0 1517 939" width="1517px" zoomAndPan="magnify"><title>Diagramme de classes &#8212; Communication et tra&#231;abilit&#233;</title><defs/><g><g class="title" data-source-line="55"><text fill="#000000" font-family="Segoe UI" font-size="14" font-weight="bold" lengthAdjust="spacing" textLength="358.5654" x="575.4673" y="25.1074">Diagramme de classes &#8212; Communication et tra&#231;abilit&#233;</text></g><!--class Note--><g class="entity" data-entity="Note" data-source-line="57" data-uid="ent0002" id="entity_Note"><rect fill="#FFFFFF" height="246.8125" rx="2.5" ry="2.5" style="stroke:#1B4FCA;stroke-width:0.5;" width="195.8281" x="852.5" y="200.6211"/><rect fill="#EEF2FF" height="23.3008" rx="2.5" ry="2.5" style="stroke:#EEF2FF;stroke-width:0.5;" width="195.8281" x="852.5" y="200.6211"/><rect fill="#EEF2FF" height="2.5" style="stroke:#EEF2FF;stroke-width:0.5;" width="195.8281" x="852.5" y="221.4219"/><rect fill="none" height="246.8125" rx="2.5" ry="2.5" style="stroke:#1B4FCA;stroke-width:0.5;" width="195.8281" x="852.5" y="200.6211"/><text fill="#334155" font-family="Segoe UI" font-size="10" font-weight="bold" lengthAdjust="spacing" textLength="23.3154" x="938.7563" y="216.4121">Note</text><line style="stroke:#1B4FCA;stroke-width:0.5;" x1="853.5" x2="1047.3281" y1="223.9219" y2="223.9219"/><text fill="#334155" font-family="Segoe UI" font-size="10" lengthAdjust="spacing" textLength="46.2109" x="858.5" y="238.7129">+id : UUID</text><line style="stroke:#1B4FCA;stroke-width:1;" x1="853.5" x2="1047.3281" y1="245.2227" y2="245.2227"/><text fill="#334155" font-family="Segoe UI" font-size="10" lengthAdjust="spacing" textLength="97.8906" x="858.5" y="260.0137">port&#233;e : VARCHAR(30)</text><text fill="#334155" font-family="Segoe UI" font-size="10" lengthAdjust="spacing" textLength="92.124" x="858.5" y="273.3145">titre : VARCHAR(255)</text><text fill="#334155" font-family="Segoe UI" font-size="10" lengthAdjust="spacing" textLength="53.1592" x="858.5" y="286.6152">corps : TEXT</text><text fill="#334155" font-family="Segoe UI" font-size="10" lengthAdjust="spacing" textLength="147.085" x="858.5" y="299.916">cat&#233;gorie : VARCHAR(40) = 'note'</text><text fill="#334155" font-family="Segoe UI" font-size="10" lengthAdjust="spacing" textLength="149.0186" x="858.5" y="313.2168">priorit&#233; : VARCHAR(10) = 'normal'</text><text fill="#334155" font-family="Segoe UI" font-size="10" lengthAdjust="spacing" textLength="103.5547" x="858.5" y="326.5176">&#233;pingl&#233;e : BOOL = false</text><text fill="#334155" font-family="Segoe UI" font-size="10" lengthAdjust="spacing" textLength="132.3438" x="858.5" y="339.8184">nombreDestinataires : INT = 0</text><text fill="#334155" font-family="Segoe UI" font-size="10" lengthAdjust="spacing" textLength="114.7656" x="858.5" y="353.1191">publi&#233;eLe : TIMESTAMPTZ</text><text fill="#334155" font-family="Segoe UI" font-size="10" lengthAdjust="spacing" textLength="105.8301" x="858.5" y="366.4199">cr&#233;&#233;eLe : TIMESTAMPTZ</text><text fill="#334155" font-family="Segoe UI" font-size="10" lengthAdjust="spacing" textLength="120.8398" x="858.5" y="379.7207">modifi&#233;eLe : TIMESTAMPTZ</text><line style="stroke:#1B4FCA;stroke-width:1;" x1="853.5" x2="1047.3281" y1="386.2305" y2="386.2305"/><text fill="#334155" font-family="Segoe UI" font-size="10" lengthAdjust="spacing" textLength="183.8281" x="858.5" y="401.0215">&#171;CHECK&#187; port&#233;e parmi platform_directors</text><text fill="#334155" font-family="Segoe UI" font-size="10" lengthAdjust="spacing" textLength="149.4385" x="858.5" y="414.3223">| establishment_staff | department</text><text fill="#334155" font-family="Segoe UI" font-size="10" lengthAdjust="spacing" textLength="165.9375" x="858.5" y="427.623">&#171;CHECK&#187; priorit&#233; parmi low | normal |</text><text fill="#334155" font-family="Segoe UI" font-size="10" lengthAdjust="spacing" textLength="56.8018" x="858.5" y="440.9238">high | urgent</text></g><!--class Pi?ceJointe--><g class="entity" data-entity="Pi.ceJointe" data-source-line="77" data-uid="ent0003" id="entity_Pi.ceJointe"><rect fill="#FFFFFF" height="140.4063" rx="2.5" ry="2.5" style="stroke:#1B4FCA;stroke-width:0.5;" width="164.666" x="1006" y="538.6211"/><rect fill="#EEF2FF" height="23.3008" rx="2.5" ry="2.5" style="stroke:#EEF2FF;stroke-width:0.5;" width="164.666" x="1006" y="538.6211"/><rect fill="#EEF2FF" height="2.5" style="stroke:#EEF2FF;stroke-width:0.5;" width="164.666" x="1006" y="559.4219"/><rect fill="none" height="140.4063" rx="2.5" ry="2.5" style="stroke:#1B4FCA;stroke-width:0.5;" width="164.666" x="1006" y="538.6211"/><text fill="#334155" font-family="Segoe UI" font-size="10" font-weight="bold" lengthAdjust="spacing" textLength="53.3643" x="1061.6509" y="554.4121">Pi&#232;ceJointe</text><line style="stroke:#1B4FCA;stroke-width:0.5;" x1="1007" x2="1169.666" y1="561.9219" y2="561.9219"/><text fill="#334155" font-family="Segoe UI" font-size="10" lengthAdjust="spacing" textLength="46.2109" x="1012" y="576.7129">+id : UUID</text><line style="stroke:#1B4FCA;stroke-width:1;" x1="1007" x2="1169.666" y1="583.2227" y2="583.2227"/><text fill="#334155" font-family="Segoe UI" font-size="10" lengthAdjust="spacing" textLength="97.3291" x="1012" y="598.0137">nature : VARCHAR(10)</text><text fill="#334155" font-family="Segoe UI" font-size="10" lengthAdjust="spacing" textLength="68.8086" x="1012" y="611.3145">fichierUrl : TEXT</text><text fill="#334155" font-family="Segoe UI" font-size="10" lengthAdjust="spacing" textLength="123.0615" x="1012" y="624.6152">nomFichier : VARCHAR(255)</text><text fill="#334155" font-family="Segoe UI" font-size="10" lengthAdjust="spacing" textLength="118.7988" x="1012" y="637.916">typeMime : VARCHAR(100)</text><text fill="#334155" font-family="Segoe UI" font-size="10" lengthAdjust="spacing" textLength="72.4072" x="1012" y="651.2168">tailleOctets : INT</text><line style="stroke:#1B4FCA;stroke-width:1;" x1="1007" x2="1169.666" y1="657.7266" y2="657.7266"/><text fill="#334155" font-family="Segoe UI" font-size="10" lengthAdjust="spacing" textLength="152.666" x="1012" y="672.5176">&#171;CHECK&#187; nature parmi image | pdf</text></g><!--class Accus?DeLecture--><g class="entity" data-entity="Accus.DeLecture" data-source-line="89" data-uid="ent0004" id="entity_Accus.DeLecture"><rect fill="#FFFFFF" height="59.2324" rx="2.5" ry="2.5" style="stroke:#7A3E9D;stroke-width:0.5;" width="102.127" x="464.5" y="579.1211"/><rect fill="#F3E8FF" height="37.9316" rx="2.5" ry="2.5" style="stroke:#F3E8FF;stroke-width:0.5;" width="102.127" x="464.5" y="579.1211"/><rect fill="#F3E8FF" height="2.5" style="stroke:#F3E8FF;stroke-width:0.5;" width="102.127" x="464.5" y="614.5527"/><rect fill="none" height="59.2324" rx="2.5" ry="2.5" style="stroke:#7A3E9D;stroke-width:0.5;" width="102.127" x="464.5" y="579.1211"/><text fill="#000000" font-family="Segoe UI" font-size="11" font-style="italic" lengthAdjust="spacing" textLength="63.9268" x="483.6001" y="595.9912">&#171;association&#187;</text><text fill="#334155" font-family="Segoe UI" font-size="10" font-weight="bold" lengthAdjust="spacing" textLength="79.9268" x="475.6001" y="609.543">Accus&#233;DeLecture</text><line style="stroke:#7A3E9D;stroke-width:0.5;" x1="465.5" x2="565.627" y1="617.0527" y2="617.0527"/><text fill="#334155" font-family="Segoe UI" font-size="10" lengthAdjust="spacing" textLength="90.127" x="470.5" y="631.8438">luLe : TIMESTAMPTZ</text></g><!--class Relance--><g class="entity" data-entity="Relance" data-source-line="93" data-uid="ent0005" id="entity_Relance"><rect fill="#FFFFFF" height="65.9023" rx="2.5" ry="2.5" style="stroke:#1B4FCA;stroke-width:0.5;" width="130.8818" x="764" y="575.6211"/><rect fill="#EEF2FF" height="23.3008" rx="2.5" ry="2.5" style="stroke:#EEF2FF;stroke-width:0.5;" width="130.8818" x="764" y="575.6211"/><rect fill="#EEF2FF" height="2.5" style="stroke:#EEF2FF;stroke-width:0.5;" width="130.8818" x="764" y="596.4219"/><rect fill="none" height="65.9023" rx="2.5" ry="2.5" style="stroke:#1B4FCA;stroke-width:0.5;" width="130.8818" x="764" y="575.6211"/><text fill="#334155" font-family="Segoe UI" font-size="10" font-weight="bold" lengthAdjust="spacing" textLength="36.4209" x="811.2305" y="591.4121">Relance</text><line style="stroke:#1B4FCA;stroke-width:0.5;" x1="765" x2="893.8818" y1="598.9219" y2="598.9219"/><text fill="#334155" font-family="Segoe UI" font-size="10" lengthAdjust="spacing" textLength="46.2109" x="770" y="613.7129">+id : UUID</text><line style="stroke:#1B4FCA;stroke-width:1;" x1="765" x2="893.8818" y1="620.2227" y2="620.2227"/><text fill="#334155" font-family="Segoe UI" font-size="10" lengthAdjust="spacing" textLength="118.8818" x="770" y="635.0137">envoy&#233;eLe : TIMESTAMPTZ</text></g><!--class Notification--><g class="entity" data-entity="Notification" data-source-line="99" data-uid="ent0006" id="entity_Notification"><rect fill="#FFFFFF" height="198.9102" rx="2.5" ry="2.5" style="stroke:#1B4FCA;stroke-width:0.5;" width="161.0186" x="585" y="509.1211"/><rect fill="#EEF2FF" height="23.3008" rx="2.5" ry="2.5" style="stroke:#EEF2FF;stroke-width:0.5;" width="161.0186" x="585" y="509.1211"/><rect fill="#EEF2FF" height="2.5" style="stroke:#EEF2FF;stroke-width:0.5;" width="161.0186" x="585" y="529.9219"/><rect fill="none" height="198.9102" rx="2.5" ry="2.5" style="stroke:#1B4FCA;stroke-width:0.5;" width="161.0186" x="585" y="509.1211"/><text fill="#334155" font-family="Segoe UI" font-size="10" font-weight="bold" lengthAdjust="spacing" textLength="56.499" x="637.2598" y="524.9121">Notification</text><line style="stroke:#1B4FCA;stroke-width:0.5;" x1="586" x2="745.0186" y1="532.4219" y2="532.4219"/><text fill="#334155" font-family="Segoe UI" font-size="10" lengthAdjust="spacing" textLength="46.2109" x="591" y="547.2129">+id : UUID</text><line style="stroke:#1B4FCA;stroke-width:1;" x1="586" x2="745.0186" y1="553.7227" y2="553.7227"/><text fill="#334155" font-family="Segoe UI" font-size="10" lengthAdjust="spacing" textLength="88.1641" x="591" y="568.5137">type : VARCHAR(50)</text><text fill="#334155" font-family="Segoe UI" font-size="10" lengthAdjust="spacing" textLength="92.124" x="591" y="581.8145">titre : VARCHAR(255)</text><text fill="#334155" font-family="Segoe UI" font-size="10" lengthAdjust="spacing" textLength="102.0508" x="591" y="595.1152">titreAr : VARCHAR(255)</text><text fill="#334155" font-family="Segoe UI" font-size="10" lengthAdjust="spacing" textLength="67.6172" x="591" y="608.416">message : TEXT</text><text fill="#334155" font-family="Segoe UI" font-size="10" lengthAdjust="spacing" textLength="77.5439" x="591" y="621.7168">messageAr : TEXT</text><text fill="#334155" font-family="Segoe UI" font-size="10" lengthAdjust="spacing" textLength="113.3105" x="591" y="635.0176">typeEntit&#233; : VARCHAR(50)</text><text fill="#334155" font-family="Segoe UI" font-size="10" lengthAdjust="spacing" textLength="100.9033" x="591" y="648.3184">identifiantEntit&#233; : UUID</text><text fill="#334155" font-family="Segoe UI" font-size="10" lengthAdjust="spacing" textLength="149.0186" x="591" y="661.6191">priorit&#233; : VARCHAR(20) = 'normal'</text><text fill="#334155" font-family="Segoe UI" font-size="10" lengthAdjust="spacing" textLength="78.9063" x="591" y="674.9199">lue : BOOL = false</text><text fill="#334155" font-family="Segoe UI" font-size="10" lengthAdjust="spacing" textLength="90.127" x="591" y="688.2207">luLe : TIMESTAMPTZ</text><text fill="#334155" font-family="Segoe UI" font-size="10" lengthAdjust="spacing" textLength="105.8301" x="591" y="701.5215">cr&#233;&#233;eLe : TIMESTAMPTZ</text></g><!--class JournalDActivit?--><g class="entity" data-entity="JournalDActivit." data-source-line="115" data-uid="ent0007" id="entity_JournalDActivit."><rect fill="#FFFFFF" height="213.541" rx="2.5" ry="2.5" style="stroke:#0F766E;stroke-width:0.5;" width="171.9414" x="1284.5" y="501.6211"/><rect fill="#E6F4F1" height="37.9316" rx="2.5" ry="2.5" style="stroke:#E6F4F1;stroke-width:0.5;" width="171.9414" x="1284.5" y="501.6211"/><rect fill="#E6F4F1" height="2.5" style="stroke:#E6F4F1;stroke-width:0.5;" width="171.9414" x="1284.5" y="537.0527"/><rect fill="none" height="213.541" rx="2.5" ry="2.5" style="stroke:#0F766E;stroke-width:0.5;" width="171.9414" x="1284.5" y="501.6211"/><text fill="#000000" font-family="Segoe UI" font-size="11" font-style="italic" lengthAdjust="spacing" textLength="59.2969" x="1340.8223" y="518.4912">&#171;immuable&#187;</text><text fill="#334155" font-family="Segoe UI" font-size="10" font-weight="bold" lengthAdjust="spacing" textLength="78.3691" x="1331.2861" y="532.043">JournalDActivit&#233;</text><line style="stroke:#0F766E;stroke-width:0.5;" x1="1285.5" x2="1455.4414" y1="539.5527" y2="539.5527"/><text fill="#334155" font-family="Segoe UI" font-size="10" lengthAdjust="spacing" textLength="46.2109" x="1290.5" y="554.3438">+id : UUID</text><line style="stroke:#0F766E;stroke-width:1;" x1="1285.5" x2="1455.4414" y1="560.8535" y2="560.8535"/><text fill="#334155" font-family="Segoe UI" font-size="10" lengthAdjust="spacing" textLength="95.8643" x="1290.5" y="575.6445">action : VARCHAR(80)</text><text fill="#334155" font-family="Segoe UI" font-size="10" lengthAdjust="spacing" textLength="159.9414" x="1290.5" y="588.9453">cat&#233;gorie : VARCHAR(40) = 'general'</text><text fill="#334155" font-family="Segoe UI" font-size="10" lengthAdjust="spacing" textLength="78.1689" x="1290.5" y="602.2461">description : TEXT</text><text fill="#334155" font-family="Segoe UI" font-size="10" lengthAdjust="spacing" textLength="88.0957" x="1290.5" y="615.5469">descriptionAr : TEXT</text><text fill="#334155" font-family="Segoe UI" font-size="10" lengthAdjust="spacing" textLength="113.3105" x="1290.5" y="628.8477">typeEntit&#233; : VARCHAR(60)</text><text fill="#334155" font-family="Segoe UI" font-size="10" lengthAdjust="spacing" textLength="100.9033" x="1290.5" y="642.1484">identifiantEntit&#233; : UUID</text><text fill="#334155" font-family="Segoe UI" font-size="10" lengthAdjust="spacing" textLength="97.3682" x="1290.5" y="655.4492">m&#233;tadonn&#233;es : JSONB</text><text fill="#334155" font-family="Segoe UI" font-size="10" lengthAdjust="spacing" textLength="133.1006" x="1290.5" y="668.75">gravit&#233; : VARCHAR(10) = 'info'</text><text fill="#334155" font-family="Segoe UI" font-size="10" lengthAdjust="spacing" textLength="110.4883" x="1290.5" y="682.0508">adresseIP : VARCHAR(45)</text><text fill="#334155" font-family="Segoe UI" font-size="10" lengthAdjust="spacing" textLength="98.9453" x="1290.5" y="695.3516">agentUtilisateur : TEXT</text><text fill="#334155" font-family="Segoe UI" font-size="10" lengthAdjust="spacing" textLength="100.6006" x="1290.5" y="708.6523">cr&#233;&#233;Le : TIMESTAMPTZ</text></g><!--class JournalDAudit--><g class="entity" data-entity="JournalDAudit" data-source-line="131" data-uid="ent0008" id="entity_JournalDAudit"><rect fill="#FEF3C7" height="173.6387" rx="2.5" ry="2.5" style="stroke:#B4530A;stroke-width:0.5;" width="125.3105" x="88" y="521.6211"/><rect fill="#FDE68A" height="37.9316" rx="2.5" ry="2.5" style="stroke:#FDE68A;stroke-width:0.5;" width="125.3105" x="88" y="521.6211"/><rect fill="#FDE68A" height="2.5" style="stroke:#FDE68A;stroke-width:0.5;" width="125.3105" x="88" y="557.0527"/><rect fill="none" height="173.6387" rx="2.5" ry="2.5" style="stroke:#B4530A;stroke-width:0.5;" width="125.3105" x="88" y="521.6211"/><text fill="#000000" font-family="Segoe UI" font-size="11" font-style="italic" lengthAdjust="spacing" textLength="57.1538" x="122.0784" y="538.4912">&#171;inexploit&#233;&#187;</text><text fill="#7C2D12" font-family="Segoe UI" font-size="10" font-weight="bold" lengthAdjust="spacing" textLength="68.2471" x="116.5317" y="552.043">JournalDAudit</text><line style="stroke:#B4530A;stroke-width:0.5;" x1="89" x2="212.3105" y1="559.5527" y2="559.5527"/><text fill="#334155" font-family="Segoe UI" font-size="10" lengthAdjust="spacing" textLength="46.2109" x="94" y="574.3438">+id : UUID</text><line style="stroke:#B4530A;stroke-width:1;" x1="89" x2="212.3105" y1="580.8535" y2="580.8535"/><text fill="#334155" font-family="Segoe UI" font-size="10" lengthAdjust="spacing" textLength="101.2549" x="94" y="595.6445">action : VARCHAR(100)</text><text fill="#334155" font-family="Segoe UI" font-size="10" lengthAdjust="spacing" textLength="113.3105" x="94" y="608.9453">typeEntit&#233; : VARCHAR(50)</text><text fill="#334155" font-family="Segoe UI" font-size="10" lengthAdjust="spacing" textLength="100.9033" x="94" y="622.2461">identifiantEntit&#233; : UUID</text><text fill="#334155" font-family="Segoe UI" font-size="10" lengthAdjust="spacing" textLength="104.9316" x="94" y="635.5469">ancienneValeur : JSONB</text><text fill="#334155" font-family="Segoe UI" font-size="10" lengthAdjust="spacing" textLength="102.6367" x="94" y="648.8477">nouvelleValeur : JSONB</text><text fill="#334155" font-family="Segoe UI" font-size="10" lengthAdjust="spacing" textLength="69.7461" x="94" y="662.1484">adresseIP : INET</text><text fill="#334155" font-family="Segoe UI" font-size="10" lengthAdjust="spacing" textLength="98.9453" x="94" y="675.4492">agentUtilisateur : TEXT</text><text fill="#334155" font-family="Segoe UI" font-size="10" lengthAdjust="spacing" textLength="100.6006" x="94" y="688.75">cr&#233;&#233;Le : TIMESTAMPTZ</text></g><!--class Utilisateur--><g class="entity" data-entity="Utilisateur" data-source-line="144" data-uid="ent0009" id="entity_Utilisateur"><rect fill="#F8FAFC" height="59.2324" rx="2.5" ry="2.5" style="stroke:#94A3B8;stroke-width:0.5;" width="74.1875" x="705.5" y="769.6211"/><rect fill="#F1F5F9" height="37.9316" rx="2.5" ry="2.5" style="stroke:#F1F5F9;stroke-width:0.5;" width="74.1875" x="705.5" y="769.6211"/><rect fill="#F1F5F9" height="2.5" style="stroke:#F1F5F9;stroke-width:0.5;" width="74.1875" x="705.5" y="805.0527"/><rect fill="none" height="59.2324" rx="2.5" ry="2.5" style="stroke:#94A3B8;stroke-width:0.5;" width="74.1875" x="705.5" y="769.6211"/><text fill="#000000" font-family="Segoe UI" font-size="11" font-style="italic" lengthAdjust="spacing" textLength="72.1875" x="706.5" y="786.4912">&#171;autre paquet&#187;</text><text fill="#475569" font-family="Segoe UI" font-size="10" font-weight="bold" lengthAdjust="spacing" textLength="48.7598" x="718.2139" y="800.043">Utilisateur</text><line style="stroke:#94A3B8;stroke-width:0.5;" x1="706.5" x2="778.6875" y1="807.5527" y2="807.5527"/><text fill="#334155" font-family="Segoe UI" font-size="10" lengthAdjust="spacing" textLength="46.2109" x="711.5" y="822.3438">+id : UUID</text></g><!--class Service--><g class="entity" data-entity="Service" data-source-line="148" data-uid="ent0010" id="entity_Service"><rect fill="#F8FAFC" height="59.2324" rx="2.5" ry="2.5" style="stroke:#94A3B8;stroke-width:0.5;" width="74.1875" x="913.5" y="579.1211"/><rect fill="#F1F5F9" height="37.9316" rx="2.5" ry="2.5" style="stroke:#F1F5F9;stroke-width:0.5;" width="74.1875" x="913.5" y="579.1211"/><rect fill="#F1F5F9" height="2.5" style="stroke:#F1F5F9;stroke-width:0.5;" width="74.1875" x="913.5" y="614.5527"/><rect fill="none" height="59.2324" rx="2.5" ry="2.5" style="stroke:#94A3B8;stroke-width:0.5;" width="74.1875" x="913.5" y="579.1211"/><text fill="#000000" font-family="Segoe UI" font-size="11" font-style="italic" lengthAdjust="spacing" textLength="72.1875" x="914.5" y="595.9912">&#171;autre paquet&#187;</text><text fill="#475569" font-family="Segoe UI" font-size="10" font-weight="bold" lengthAdjust="spacing" textLength="33.4668" x="933.8604" y="609.543">Service</text><line style="stroke:#94A3B8;stroke-width:0.5;" x1="914.5" x2="986.6875" y1="617.0527" y2="617.0527"/><text fill="#334155" font-family="Segoe UI" font-size="10" lengthAdjust="spacing" textLength="46.2109" x="919.5" y="631.8438">+id : UUID</text></g><!--class ?tablissement--><g class="entity" data-entity=".tablissement" data-source-line="152" data-uid="ent0011" id="entity_.tablissement"><rect fill="#F8FAFC" height="59.2324" rx="2.5" ry="2.5" style="stroke:#94A3B8;stroke-width:0.5;" width="74.1875" x="341.5" y="769.6211"/><rect fill="#F1F5F9" height="37.9316" rx="2.5" ry="2.5" style="stroke:#F1F5F9;stroke-width:0.5;" width="74.1875" x="341.5" y="769.6211"/><rect fill="#F1F5F9" height="2.5" style="stroke:#F1F5F9;stroke-width:0.5;" width="74.1875" x="341.5" y="805.0527"/><rect fill="none" height="59.2324" rx="2.5" ry="2.5" style="stroke:#94A3B8;stroke-width:0.5;" width="74.1875" x="341.5" y="769.6211"/><text fill="#000000" font-family="Segoe UI" font-size="11" font-style="italic" lengthAdjust="spacing" textLength="72.1875" x="342.5" y="786.4912">&#171;autre paquet&#187;</text><text fill="#475569" font-family="Segoe UI" font-size="10" font-weight="bold" lengthAdjust="spacing" textLength="65.2002" x="345.9937" y="800.043">&#201;tablissement</text><line style="stroke:#94A3B8;stroke-width:0.5;" x1="342.5" x2="414.6875" y1="807.5527" y2="807.5527"/><text fill="#334155" font-family="Segoe UI" font-size="10" lengthAdjust="spacing" textLength="46.2109" x="347.5" y="822.3438">+id : UUID</text></g><g class="entity" data-entity="N1" data-source-line="177" data-uid="ent0027" id="entity_N1"><path d="M793.5,51.6211 L793.5,164.0371 A0,0 0 0 0 793.5,164.0371 L946.5,164.0371 L950.5,200.4927 L954.5,164.0371 L1107.5415,164.0371 A0,0 0 0 0 1107.5415,164.0371 L1107.5415,61.6211 L1097.5415,51.6211 L793.5,51.6211 A0,0 0 0 0 793.5,51.6211" fill="#FEF9C3" style="stroke:#B4530A;stroke-width:0.5;"/><path d="M1097.5415,51.6211 L1097.5415,61.6211 L1107.5415,61.6211 L1097.5415,51.6211" fill="#FEF9C3" style="stroke:#B4530A;stroke-width:0.5;"/><text fill="#000000" font-family="Segoe UI" font-size="11" font-weight="bold" lengthAdjust="spacing" textLength="293.0415" x="799.5" y="68.4912">La port&#233;e d'une note est impos&#233;e par le r&#244;le, pas choisie.</text><text fill="#000000" font-family="Segoe UI" font-size="11" lengthAdjust="spacing" textLength="236.2905" x="799.5" y="83.1221">`resolveScope` l'attribue : le super administrateur</text><text fill="#000000" font-family="Segoe UI" font-size="11" lengthAdjust="spacing" textLength="247.269" x="799.5" y="97.7529">&#233;crit aux directeurs de la plateforme, le directeur et</text><text fill="#000000" font-family="Segoe UI" font-size="11" lengthAdjust="spacing" textLength="209.4727" x="799.5" y="112.3838">le surveillant g&#233;n&#233;ral &#224; tout le personnel de</text><text fill="#000000" font-family="Segoe UI" font-size="11" lengthAdjust="spacing" textLength="249.1221" x="799.5" y="127.0146">l'&#233;tablissement, le chef de service au seul personnel</text><text fill="#000000" font-family="Segoe UI" font-size="11" lengthAdjust="spacing" textLength="256.4053" x="799.5" y="141.6455">de son service. Un auteur ne peut donc pas &#233;largir sa</text><text fill="#000000" font-family="Segoe UI" font-size="11" lengthAdjust="spacing" textLength="170.21" x="799.5" y="156.2764">diffusion au-del&#224; de son p&#233;rim&#232;tre.</text></g><g class="entity" data-entity="N2" data-source-line="187" data-uid="ent0028" id="entity_N2"><path d="M283,282.6211 L283,365.7754 A0,0 0 0 0 283,365.7754 L428.501,365.7754 L505.6331,578.8851 L436.501,365.7754 L553.5679,365.7754 A0,0 0 0 0 553.5679,365.7754 L553.5679,292.6211 L543.5679,282.6211 L283,282.6211 A0,0 0 0 0 283,282.6211" fill="#FEF9C3" style="stroke:#B4530A;stroke-width:0.5;"/><path d="M543.5679,282.6211 L543.5679,292.6211 L553.5679,292.6211 L543.5679,282.6211" fill="#FEF9C3" style="stroke:#B4530A;stroke-width:0.5;"/><text fill="#000000" font-family="Segoe UI" font-size="11" font-weight="bold" lengthAdjust="spacing" textLength="230.0977" x="289" y="299.4912">`Accus&#233;DeLecture` est une classe-association</text><text fill="#000000" font-family="Segoe UI" font-size="11" lengthAdjust="spacing" textLength="12.23" x="522.1108" y="299.4912">de</text><text fill="#000000" font-family="Segoe UI" font-size="11" lengthAdjust="spacing" textLength="220.6982" x="289" y="314.1221">cl&#233; primaire composite (note, utilisateur) : elle</text><text fill="#000000" font-family="Segoe UI" font-size="11" lengthAdjust="spacing" textLength="249.5679" x="289" y="328.7529">mat&#233;rialise qui a lu quoi et quand. `Relance` permet</text><text fill="#000000" font-family="Segoe UI" font-size="11" lengthAdjust="spacing" textLength="236.8384" x="289" y="343.3838">au diffuseur de rappeler la note aux destinataires</text><text fill="#000000" font-family="Segoe UI" font-size="11" lengthAdjust="spacing" textLength="137.8706" x="289" y="358.0146">n'ayant pas encore d'accus&#233;.</text></g><g class="entity" data-entity="N3" data-source-line="195" data-uid="ent0029" id="entity_N3"><path d="M1230.5,260.6211 L1230.5,387.668 A0,0 0 0 0 1230.5,387.668 L1366.5,387.668 L1370.5,501.5337 L1374.5,387.668 L1510.4028,387.668 A0,0 0 0 0 1510.4028,387.668 L1510.4028,270.6211 L1500.4028,260.6211 L1230.5,260.6211 A0,0 0 0 0 1230.5,260.6211" fill="#FEF9C3" style="stroke:#B4530A;stroke-width:0.5;"/><path d="M1500.4028,260.6211 L1500.4028,270.6211 L1510.4028,270.6211 L1500.4028,260.6211" fill="#FEF9C3" style="stroke:#B4530A;stroke-width:0.5;"/><text fill="#000000" font-family="Segoe UI" font-size="11" font-weight="bold" lengthAdjust="spacing" textLength="202.4312" x="1236.5" y="277.4912">`JournalDActivit&#233;` est en &#233;criture seule.</text><text fill="#000000" font-family="Segoe UI" font-size="11" lengthAdjust="spacing" textLength="258.9028" x="1236.5" y="292.1221">Aucune route de modification ni de suppression n'est</text><text fill="#000000" font-family="Segoe UI" font-size="11" lengthAdjust="spacing" textLength="217.5186" x="1236.5" y="306.7529">expos&#233;e : la table s'&#233;crit et se lit, jamais ne se</text><text fill="#000000" font-family="Segoe UI" font-size="11" lengthAdjust="spacing" textLength="225.6826" x="1236.5" y="321.3838">corrige. Tout acteur y voit ses propres actions ;</text><text fill="#000000" font-family="Segoe UI" font-size="11" lengthAdjust="spacing" textLength="205.7773" x="1236.5" y="336.0146">seuls les r&#244;les de direction lisent celles des</text><text fill="#000000" font-family="Segoe UI" font-size="11" lengthAdjust="spacing" textLength="224.2808" x="1236.5" y="350.6455">autres, born&#233;es &#224; leur p&#233;rim&#232;tre. `adresseIP` et</text><text fill="#000000" font-family="Segoe UI" font-size="11" lengthAdjust="spacing" textLength="252.3662" x="1236.5" y="365.2764">`agentUtilisateur` permettent d'imputer l'action &#224; un</text><text fill="#000000" font-family="Segoe UI" font-size="11" lengthAdjust="spacing" textLength="29.4443" x="1236.5" y="379.9072">poste.</text></g><g class="entity" data-entity="N4" data-source-line="206" data-uid="ent0030" id="entity_N4"><path d="M6,253.1211 L6,394.7988 A0,0 0 0 0 6,394.7988 L135.2271,394.7988 L145.9207,521.3782 L143.2271,394.7988 L265.063,394.7988 A0,0 0 0 0 265.063,394.7988 L265.063,263.1211 L255.063,253.1211 L6,253.1211 A0,0 0 0 0 6,253.1211" fill="#FEF9C3" style="stroke:#B4530A;stroke-width:0.5;"/><path d="M255.063,253.1211 L255.063,263.1211 L265.063,263.1211 L255.063,253.1211" fill="#FEF9C3" style="stroke:#B4530A;stroke-width:0.5;"/><text fill="#000000" font-family="Segoe UI" font-size="11" font-weight="bold" lengthAdjust="spacing" textLength="203.0542" x="12" y="269.9912">`JournalDAudit` n'est jamais aliment&#233;e.</text><text fill="#000000" font-family="Segoe UI" font-size="11" lengthAdjust="spacing" textLength="232.9712" x="12" y="284.6221">La table, pr&#233;vue pour conserver l'avant/apr&#232;s de</text><text fill="#000000" font-family="Segoe UI" font-size="11" lengthAdjust="spacing" textLength="188.3105" x="12" y="299.2529">chaque modification (`ancienneValeur`,</text><text fill="#000000" font-family="Segoe UI" font-size="11" lengthAdjust="spacing" textLength="237.1553" x="12" y="313.8838">`nouvelleValeur`), n'est cit&#233;e que par la migration</text><text fill="#000000" font-family="Segoe UI" font-size="11" lengthAdjust="spacing" textLength="201.3301" x="12" y="328.5146">de cr&#233;ation. La tra&#231;abilit&#233; effective repose</text><text fill="#000000" font-family="Segoe UI" font-size="11" lengthAdjust="spacing" textLength="215.4238" x="12" y="343.1455">enti&#232;rement sur `JournalDActivit&#233;`, qui d&#233;crit</text><text fill="#000000" font-family="Segoe UI" font-size="11" lengthAdjust="spacing" textLength="222.4976" x="12" y="357.7764">l'action sans conserver les valeurs remplac&#233;es.</text><text fill="#000000" font-family="Segoe UI" font-size="11" lengthAdjust="spacing" textLength="238.063" x="12" y="372.4072">&#192; porter en perspective : le diff&#233;rentiel de valeurs</text><text fill="#000000" font-family="Segoe UI" font-size="11" lengthAdjust="spacing" textLength="227.4282" x="12" y="387.0381">serait la brique manquante d'un audit complet.</text></g><g class="entity" data-entity="N5" data-source-line="218" data-uid="ent0031" id="entity_N5"><path d="M572.5,268.1211 L572.5,380.5371 A0,0 0 0 0 572.5,380.5371 L692.083,380.5371 L678.7829,508.8729 L700.083,380.5371 L834.9468,380.5371 A0,0 0 0 0 834.9468,380.5371 L834.9468,278.1211 L824.9468,268.1211 L572.5,268.1211 A0,0 0 0 0 572.5,268.1211" fill="#FEF9C3" style="stroke:#B4530A;stroke-width:0.5;"/><path d="M824.9468,268.1211 L824.9468,278.1211 L834.9468,278.1211 L824.9468,268.1211" fill="#FEF9C3" style="stroke:#B4530A;stroke-width:0.5;"/><text fill="#000000" font-family="Segoe UI" font-size="11" lengthAdjust="spacing" textLength="223.8296" x="578.5" y="284.9912">`Notification` est un canal strictement interne :</text><text fill="#000000" font-family="Segoe UI" font-size="11" lengthAdjust="spacing" textLength="199.3267" x="578.5" y="299.6221">aucun courriel n'est &#233;mis. La d&#233;pendance</text><text fill="#000000" font-family="Segoe UI" font-size="11" lengthAdjust="spacing" textLength="233.8359" x="578.5" y="314.2529">`nodemailer` est d&#233;clar&#233;e au `package.json` mais</text><text fill="#000000" font-family="Segoe UI" font-size="11" lengthAdjust="spacing" textLength="226.6387" x="578.5" y="328.8838">n'est import&#233;e par aucun module &#8212; v&#233;rifi&#233; par</text><text fill="#000000" font-family="Segoe UI" font-size="11" lengthAdjust="spacing" textLength="241.4468" x="578.5" y="343.5146">recherche sur l'ensemble du backend. La diffusion</text><text fill="#000000" font-family="Segoe UI" font-size="11" lengthAdjust="spacing" textLength="222.9111" x="578.5" y="358.1455">temps r&#233;el se fait par `socket.io`, sur les salons</text><text fill="#000000" font-family="Segoe UI" font-size="11" lengthAdjust="spacing" textLength="193.2412" x="578.5" y="372.7764">`user:`, `establishment:` et `department:`.</text></g><g class="link" data-entity-1="Note" data-entity-2="Utilisateur" data-uid="lnk12" id="link_Note_Utilisateur"><polygon fill="#334155" points="779.5747,796.9585,788.7284,800.5931,784.5707,796.7573,788.4065,792.5996,779.5747,796.9585" style="stroke:#334155;stroke-width:1;"/><path d="M1048.5747,372.6798 C1097.8505,402.3106 1152.841,445.5313 1180.5,501.6211 C1201.5324,544.2728 1210.8555,679.0141 1180.5,715.6211 C1129.5025,777.1211 881.7804,792.8431 785.5699,796.7171" fill="none" style="stroke:#334155;stroke-width:1;"/><text fill="#000000" font-family="Segoe UI" font-size="11" lengthAdjust="spacing" textLength="55.6016" x="1201.5" y="613.4912">r&#233;dig&#233;e par</text><text fill="#000000" font-family="Segoe UI" font-size="11" lengthAdjust="spacing" textLength="5.9297" x="780.5747" y="809.8286">1</text><text fill="#000000" font-family="Segoe UI" font-size="11" lengthAdjust="spacing" textLength="15.2861" x="1049.5747" y="369.5499">0..*</text></g><g class="link" data-entity-1="Note" data-entity-2=".tablissement" data-uid="lnk13" id="link_Note_.tablissement"><polygon fill="#334155" points="374.9589,769.3327,377.9242,759.9408,374.3981,764.3643,369.9747,760.8382,374.9589,769.3327" style="stroke:#334155;stroke-width:1;"/><path d="M852.4405,442.7033 C849.5107,444.4593 846.5298,446.1037 843.5,447.6211 C752.2621,493.3166 454.716,424.8458 387.5,501.6211 C353.2374,540.7564 366.7689,696.7759 374.2859,763.3706" fill="none" style="stroke:#334155;stroke-width:1;"/><text fill="#000000" font-family="Segoe UI" font-size="11" lengthAdjust="spacing" textLength="64.4048" x="389.5" y="613.4912">diffus&#233;e dans</text><text fill="#000000" font-family="Segoe UI" font-size="11" lengthAdjust="spacing" textLength="16.6289" x="357.9589" y="766.2028">0..1</text><text fill="#000000" font-family="Segoe UI" font-size="11" lengthAdjust="spacing" textLength="15.2861" x="836.4405" y="455.5734">0..*</text></g><g class="link" data-entity-1="Note" data-entity-2="Service" data-uid="lnk14" id="link_Note_Service"><polygon fill="#334155" points="950.5,578.8877,954.5,569.8877,950.5,573.8877,946.5,569.8877,950.5,578.8877" style="stroke:#334155;stroke-width:1;"/><path d="M950.5,447.7972 C950.5,496.3399 950.5,541.8608 950.5,572.8877" fill="none" style="stroke:#334155;stroke-width:1;"/><text fill="#000000" font-family="Segoe UI" font-size="11" lengthAdjust="spacing" textLength="96.7764" x="952.5" y="479.4912">restreinte au service</text><text fill="#000000" font-family="Segoe UI" font-size="11" lengthAdjust="spacing" textLength="16.6289" x="933.5" y="575.7578">0..1</text><text fill="#000000" font-family="Segoe UI" font-size="11" lengthAdjust="spacing" textLength="15.2861" x="934.5" y="460.6673">0..*</text></g><g class="link" data-entity-1="Note" data-entity-2="Pi.ceJointe" data-uid="lnk15" id="link_Note_Pi.ceJointe"><polygon fill="#334155" points="1045.4846,447.9273,1044.876,455.1127,1051.2746,458.4381,1051.8831,451.2527,1045.4846,447.9273" style="stroke:#334155;stroke-width:1;"/><path d="M1051.2746,458.4381 C1054.5071,464.3061 1051.7438,459.707 1054.5,465.6211 C1065.101,488.3682 1072.5876,514.7582 1077.7831,538.5716" fill="none" style="stroke:#334155;stroke-width:1;"/><text fill="#000000" font-family="Segoe UI" font-size="11" lengthAdjust="spacing" textLength="26.2163" x="1062.5" y="479.4912">porte</text><text fill="#000000" font-family="Segoe UI" font-size="11" lengthAdjust="spacing" textLength="15.2861" x="1061.7831" y="535.4417">0..*</text><text fill="#000000" font-family="Segoe UI" font-size="11" lengthAdjust="spacing" textLength="5.9297" x="1039.4846" y="460.7974">1</text></g><g class="link" data-entity-1="Note" data-entity-2="Relance" data-uid="lnk16" id="link_Note_Relance"><polygon fill="#334155" points="887.4212,447.6687,881.2966,451.4751,882.4546,458.5926,888.5792,454.7862,887.4212,447.6687" style="stroke:#334155;stroke-width:1;"/><path d="M882.4546,458.5926 C879.7094,464.6308 882.0202,459.7137 879.5,465.6211 C863.7061,502.643 848.8204,546.5095 839.4656,575.5883" fill="none" style="stroke:#334155;stroke-width:1;"/><text fill="#000000" font-family="Segoe UI" font-size="11" lengthAdjust="spacing" textLength="63.9375" x="881.5" y="479.4912">fait l'objet de</text><text fill="#000000" font-family="Segoe UI" font-size="11" lengthAdjust="spacing" textLength="15.2861" x="823.4656" y="572.4585">0..*</text><text fill="#000000" font-family="Segoe UI" font-size="11" lengthAdjust="spacing" textLength="5.9297" x="881.4212" y="460.5388">1</text></g><g class="link" data-entity-1="Note" data-entity-2="Accus.DeLecture" data-uid="lnk17" id="link_Note_Accus.DeLecture"><path d="M852.1707,442.2035 C849.3219,444.1097 846.4308,445.9203 843.5,447.6211 C738.4096,508.6084 673.8739,430.3047 575.5,501.6211 C549.4765,520.4869 533.2036,554.3187 524.2767,578.6934" fill="none" style="stroke:#334155;stroke-width:1;"/><text fill="#000000" font-family="Segoe UI" font-size="11" lengthAdjust="spacing" textLength="15.2861" x="508.2767" y="575.5636">0..*</text><text fill="#000000" font-family="Segoe UI" font-size="11" lengthAdjust="spacing" textLength="5.9297" x="846.1707" y="439.0736">1</text></g><g class="link" data-entity-1="Accus.DeLecture" data-entity-2="Utilisateur" data-uid="lnk18" id="link_Accus.DeLecture_Utilisateur"><path d="M526.9511,638.2479 C537.1552,661.1471 553.8217,693.0483 575.5,715.6211 C611.5634,753.1725 668.3181,776.1219 705.4745,787.9835" fill="none" style="stroke:#334155;stroke-width:1;"/><text fill="#000000" font-family="Segoe UI" font-size="11" lengthAdjust="spacing" textLength="5.9297" x="699.4745" y="784.8536">1</text><text fill="#000000" font-family="Segoe UI" font-size="11" lengthAdjust="spacing" textLength="15.2861" x="510.9511" y="651.118">0..*</text></g><g class="link" data-entity-1="Relance" data-entity-2="Utilisateur" data-uid="lnk19" id="link_Relance_Utilisateur"><polygon fill="#334155" points="779.634,792.3881,789.3241,794.1498,784.4926,791.2074,787.435,786.376,779.634,792.3881" style="stroke:#334155;stroke-width:1;"/><path d="M845.1707,641.6533 C857.7186,672.3415 869.9937,718.7213 848.5,751.6211 C833.3324,774.8376 809.5453,785.1193 785.4644,790.9713" fill="none" style="stroke:#334155;stroke-width:1;"/><text fill="#000000" font-family="Segoe UI" font-size="11" lengthAdjust="spacing" textLength="56.6758" x="858.5" y="747.4912">destinataire</text><text fill="#000000" font-family="Segoe UI" font-size="11" lengthAdjust="spacing" textLength="5.9297" x="780.634" y="789.2583">1</text><text fill="#000000" font-family="Segoe UI" font-size="11" lengthAdjust="spacing" textLength="15.2861" x="829.1707" y="654.5234">0..*</text></g><g class="link" data-entity-1="Relance" data-entity-2="Utilisateur" data-uid="lnk20" id="link_Relance_Utilisateur"><polygon fill="#334155" points="755.6968,769.528,763.1002,763.0326,757.7921,764.9882,755.8365,759.6801,755.6968,769.528" style="stroke:#334155;stroke-width:1;"/><path d="M814.5442,642.0254 C797.9773,677.9203 774.0352,729.7947 758.2112,764.0803" fill="none" style="stroke:#334155;stroke-width:1;"/><text fill="#000000" font-family="Segoe UI" font-size="11" lengthAdjust="spacing" textLength="59.4204" x="773.5" y="747.4912">envoy&#233;e par</text><text fill="#000000" font-family="Segoe UI" font-size="11" lengthAdjust="spacing" textLength="16.6289" x="738.6968" y="766.3981">0..1</text><text fill="#000000" font-family="Segoe UI" font-size="11" lengthAdjust="spacing" textLength="15.2861" x="798.5442" y="654.8955">0..*</text></g><g class="link" data-entity-1="Notification" data-entity-2="Utilisateur" data-uid="lnk21" id="link_Notification_Utilisateur"><polygon fill="#334155" points="714.4957,769.5872,712.01,760.0572,711.3776,765.6786,705.7562,765.0462,714.4957,769.5872" style="stroke:#334155;stroke-width:1;"/><path d="M684.9979,708.4423 C689.701,723.3382 695.4647,738.1944 702.5,751.6211 C705.762,757.8465 706.2589,759.2623 710.7539,764.8969" fill="none" style="stroke:#334155;stroke-width:1;"/><text fill="#000000" font-family="Segoe UI" font-size="11" lengthAdjust="spacing" textLength="56.6758" x="704.5" y="747.4912">destinataire</text><text fill="#000000" font-family="Segoe UI" font-size="11" lengthAdjust="spacing" textLength="5.9297" x="708.4957" y="766.4574">1</text><text fill="#000000" font-family="Segoe UI" font-size="11" lengthAdjust="spacing" textLength="15.2861" x="668.9979" y="721.3125">0..*</text></g><g class="link" data-entity-1="Notification" data-entity-2="Utilisateur" data-uid="lnk22" id="link_Notification_Utilisateur"><polygon fill="#334155" points="705.1476,790.7485,697.6481,784.3644,700.3521,789.3331,695.3834,792.0372,705.1476,790.7485" style="stroke:#334155;stroke-width:1;"/><path d="M633.3712,708.17 C633.2156,723.4997 636.2419,738.5621 644.5,751.6211 C657.786,772.6309 677.6714,782.6388 699.393,789.05" fill="none" style="stroke:#334155;stroke-width:1;"/><text fill="#000000" font-family="Segoe UI" font-size="11" lengthAdjust="spacing" textLength="44.2363" x="646.5" y="747.4912">&#233;metteur</text><text fill="#000000" font-family="Segoe UI" font-size="11" lengthAdjust="spacing" textLength="16.6289" x="688.1476" y="803.6186">0..1</text><text fill="#000000" font-family="Segoe UI" font-size="11" lengthAdjust="spacing" textLength="15.2861" x="617.3712" y="721.0402">0..*</text></g><g class="link" data-entity-1="Notification" data-entity-2=".tablissement" data-uid="lnk23" id="link_Notification_.tablissement"><polygon fill="#334155" points="415.5539,782.3704,425.4013,782.5392,420.1571,780.4183,422.278,775.1741,415.5539,782.3704" style="stroke:#334155;stroke-width:1;"/><path d="M585.0396,708.2153 C581.9068,710.8043 578.7243,713.2821 575.5,715.6211 C558.3975,728.0277 551.0127,725.5172 531.5,733.6211 C491.8337,750.0952 452.0349,766.9 421.0777,780.0279" fill="none" style="stroke:#334155;stroke-width:1;"/><text fill="#000000" font-family="Segoe UI" font-size="11" lengthAdjust="spacing" textLength="98.3125" x="533.5" y="747.4912">dans l'&#233;tablissement</text><text fill="#000000" font-family="Segoe UI" font-size="11" lengthAdjust="spacing" textLength="5.9297" x="416.5539" y="779.2405">1</text><text fill="#000000" font-family="Segoe UI" font-size="11" lengthAdjust="spacing" textLength="15.2861" x="569.0396" y="705.0854">0..*</text></g><g class="link" data-entity-1="JournalDActivit." data-entity-2="Utilisateur" data-uid="lnk24" id="link_JournalDActivit._Utilisateur"><polygon fill="#334155" points="779.551,797.0569,788.6773,800.7596,784.5483,796.8929,788.415,792.7639,779.551,797.0569" style="stroke:#334155;stroke-width:1;"/><path d="M1284.1751,712.846 C1265.3486,728.856 1244.1966,742.9429 1221.5,751.6211 C1140.728,782.5047 883.3946,793.6498 785.5477,796.8601" fill="none" style="stroke:#334155;stroke-width:1;"/><text fill="#000000" font-family="Segoe UI" font-size="11" lengthAdjust="spacing" textLength="84.541" x="1257.5" y="747.4912">auteur de l'action</text><text fill="#000000" font-family="Segoe UI" font-size="11" lengthAdjust="spacing" textLength="5.9297" x="780.551" y="793.927">1</text><text fill="#000000" font-family="Segoe UI" font-size="11" lengthAdjust="spacing" textLength="15.2861" x="1268.1751" y="709.7161">0..*</text></g><g class="link" data-entity-1="JournalDAudit" data-entity-2="Utilisateur" data-uid="lnk25" id="link_JournalDAudit_Utilisateur"><polygon fill="#334155" points="705.4317,797.7727,696.5349,793.5482,700.4333,797.6473,696.3342,801.5457,705.4317,797.7727" style="stroke:#334155;stroke-width:1;"/><path d="M213.2483,654.8838 C261.312,687.2049 330.5353,728.8435 397.5,751.6211 C505.2129,788.2589 635.07,796.0074 699.4336,797.6222" fill="none" style="stroke:#334155;stroke-width:1;"/><text fill="#000000" font-family="Segoe UI" font-size="11" lengthAdjust="spacing" textLength="84.541" x="399.5" y="747.4912">auteur de l'action</text><text fill="#000000" font-family="Segoe UI" font-size="11" lengthAdjust="spacing" textLength="16.6289" x="688.4317" y="810.6428">0..1</text><text fill="#000000" font-family="Segoe UI" font-size="11" lengthAdjust="spacing" textLength="15.2861" x="214.2483" y="651.754">0..*</text></g><g class="link" data-entity-1="JournalDAudit" data-entity-2=".tablissement" data-uid="lnk26" id="link_JournalDAudit_.tablissement"><polygon fill="#334155" points="341.2549,796.0088,332.5633,791.3767,336.2676,795.6519,331.9923,799.3563,341.2549,796.0088" style="stroke:#334155;stroke-width:1;"/><path d="M133.4785,695.9708 C134.0073,716.0666 138.743,736.0979 151.5,751.6211 C175.1257,780.3697 277.1668,791.4232 335.2702,795.5806" fill="none" style="stroke:#334155;stroke-width:1;"/><text fill="#000000" font-family="Segoe UI" font-size="11" lengthAdjust="spacing" textLength="98.3125" x="153.5" y="747.4912">dans l'&#233;tablissement</text><text fill="#000000" font-family="Segoe UI" font-size="11" lengthAdjust="spacing" textLength="16.6289" x="324.2549" y="792.8789">0..1</text><text fill="#000000" font-family="Segoe UI" font-size="11" lengthAdjust="spacing" textLength="15.2861" x="117.4785" y="708.8409">0..*</text></g><g class="legend" data-source-line="233"><rect fill="none" height="84.4844" rx="7.5" ry="7.5" style="stroke:#000000;stroke-width:1;" width="402.7041" x="1094.7959" y="834.6211"/><text fill="#000000" font-family="Segoe UI" font-size="14" lengthAdjust="spacing" textLength="392.7041" x="1099.7959" y="854.7285">Vert : journal immuable, sans route d'&#233;criture ni de suppression.</text><text fill="#000000" font-family="Segoe UI" font-size="14" lengthAdjust="spacing" textLength="159.7148" x="1099.7959" y="873.3496">Violet : classe-association.</text><text fill="#000000" font-family="Segoe UI" font-size="14" lengthAdjust="spacing" textLength="352.126" x="1099.7959" y="891.9707">Orange : table pr&#233;sente au sch&#233;ma, sans usage applicatif.</text><text fill="#000000" font-family="Segoe UI" font-size="14" lengthAdjust="spacing" textLength="335.4326" x="1099.7959" y="910.5918">Gris : entit&#233; d'un autre paquet, cit&#233;e pour l'association.</text></g><!--SRC=[fLZDSXkv4RxFKo3EWROYCQ8eweVPk8gYoBKSct9PaYkLonAQ0KdOCvWnWA6jP5srrzpp0Bd5gbnpostv9dcIV0qCoI67b9MDg-GYWGQw- -lkhnlyLQRvEE4ivdTfRfb9XEMA1-Q3L1dNF66tFFmmrcckecuQfvhzkk_-bIGYCU9vRFkfiWEU27ObngbWDnURHQxadmLhD4gRPiAZz9DKOpRYiH6bdOxMwQT2RRDvs6YrIfjXp8tfMAlbRMx5HPWgT_N-kWZxIy3OsHOli9FgIEXYjN5ssEzsiFf2SAnMJlLw_GDtodbYxsB1RjCumiB2aAMF- -lBgvvKZFhkEvvRBLZ6F-R2FdyE8q_wdNvtrSYgrEbXftbsiite3RSs-gt-QU745fd3urRhw7IZZSQaeUHMfifTjW77Yj1nfzaxFN_0mhKxcxqJV-Uwe4oIdD_6OhlciiH-__ZegBTTRLcsTzG_x3SswbJYSnQdqixkdTfUlzazhgXT5JexR3NtEmzeNhlpl7TqqbcDo9h8SVVWl74GV2bbzo2refhNlVvfjxakLSxnmhQ9Z0GBfGvZuJ-ZyYTfP8B0IekyFfTyZFEePvAZGXA6_UUdlx5k2jYK35sucB3CQZxx1x-LCTaQ1BxeIAshlDym6R4skxcve0JOsyD_MQeXAR3whlEs-wBpzcbp_ndMeLYNLmzQBLeEKvqPB5_t_dXDNpaEZrCjowA7-y_OxrbDGMkDD6W90SYLH1fp4Ptmc8Hcznb89_QMd5rUliAsPo36L9hSQd4kZ9MAMowr80ik1jUGeRhEyjjOukGhEdjzyRftTTrv_URwJsIVdjrltadII8wsd7B0_FpFxejUzmy__ti14MAOI9R5t8vWzmyH30bjgWs4VsIm3kahpIGHolw0BwCHLYE1GvQMLczSGEBlZDDF4FPei1yXEf7Z2LPoFQQZN-Q1V2DdNqFnCfLgUq01KRuIkOQBvqY64odqZOwNqGEmVRzS3RIzoyHhcQnUv3E3opWMbw4LjeX35RB22E-TJFXOm9ii6YrTwOHXRcRtvy0_TBBhp4FknNabEeiBtegOgt0h349DqxjDuVrIgWfaG54wMsuX54e8j1ug3RVSsG1b8emX11Qu5mjEjbWYHJrbryh4wmCXA3ALAxiKAQpSL5m7wyKLvnkgQWEss-jb0ThBDDUAn-UTqCgfqxj2tLjWvA43UMdYYNFi8VP0uWljpO-42RNCYYiAm4gBtyRnw9iu9hDxYyb7ANXFMVtowd9mXdNGxdGpTqarIiaw7e6FZBXuK_R1nPrJyTvOSB7XLkGbAptCZq0vZwHbw_tdiI3Fw_KNfXQgImgbn3iUU-FdcAWqdmfGG6MZ3CN5e7VzVs5GFbIPYTOXM9ow4degG_4_d9ZzrHEt4KJJZphe-kcJ_NfzvmcWVywUD9wmLH_XMoJ7HTEeokCZZgnfRZDqf16H8jeyLsRRiRcBq8AceuLh1ZndngyNno2uixStFxxIEDgkesqMdBDg6po1r8jhwUrxZ1MH29RYI-br4WyghBumVnsa89YhUX38gDJrDvxmcAmUcdE_0pzOuVd7AzjwR9F6sJqcDkVMGzgg0KUOWJ5npt8z2Aea-w3PI5ZwWD4mhdaI25O9v5lM_u8B7kiA3O6CezdIEB-pyuelfgcebYl1t3vWnv2GfQQ86SF8gsV_YiKklXaMJb9ffAZlxE2E8P8-ZQVYAampCII3_QkEKXR7J9vXck5H8fL4SVXKe_4IpSB2qS_CZsrODivXxWOwGHCTrE66nJx6QMgJTAUU2imy84c6caQBG6DYixypIwzq242bGUiGCTK9gw3WhWqdOaGAYohr1Pl7oxEkfp5ydelKsOsQXqQH4YX3XmeT9hFxcEknrCnmEkY8WpAEvtkHY65RSLS6OsKo-mgUg0T2HGxmKbWEN5Y6wtKxT36X0FdNnbvfDjlPyMw6CSslk9tA1Gy32g34jK_fybsMBrFi6TKa6WRrMMhvMd9i2VOnbunZ4C67LDBhvMFELLHdmwBGXuHEui80kBoJHQ9gdcKYHgWHGEyCXRRyHA16LUDt53G2J2WyNIZhk7Tr8nfDZqQb_ZmSGXLvHCH6mIjIifE7X1HUVjOzqFpJeg009LqeyYoZtkXMQhYC9jJFHSQtoGbA6CZLYam56008hxXTzfu3OKCfuEOskA7b6DbnJTd7VQhUiIcc0qRFmaodfAeO1mpx7SwGiQXEhBgoSfdlyvmCebW0fP12H5l6uOsCCRliDjL-949AkMvVJYWsN7JyeQ-MuNg_duVGaeQeXYe7I7h1CtHjhjmprDZD6Ngu5XCYfA47SGuDiedg37RwWBmgu0Hze15FmGqPJWCvHQNbrK-H6B_bsFzgYdIUKCTV3TxJuUeGDDmb7rVdd-6ptSAQK3fYeriSYN6MICoFZazTSTF8uxxMdOdbfpeJen65Ouey4W13k2UCHTlMdc51Gcn3Okww8efyrZZkAO0rnCSbZn72gRCNEI0IS5v8OQqJD_xavm5D2Kvqb1M6j3qTZaO8ETdY-6r-YyigxMO4pcwrTDXnHHLiFRaZXwXt4374mcwCBVtmDYntp3dlu6a0FnaON2B17G0qkcWKGTjbPqWoG4EJLHv-z61f7BA08uCseX0VhqWWJy0M_df22-n9iGAj33CUVa3QrjyRqay9vQXZtfGMR_z2An84bUz-VPbIBT2F26xGO00MBA_nvw8LrmJGJwYiezpzT2k8tCY-ELtJT8vWK5dUmmzKl9kwIDaGVFi1iCaKCNRN8OA6nuWe-GGYr6ti35T-TsXJ6RBXybU7zh2C-w31wdNtQr0mEA2FbVbjqAJbIfe5WyELTGfiC6WLjosY5mIn69Cw4DI4il6Tq3GRlFVdsFoXkEkpio3Csf9KAsH9-VbEfiWVN5DjHRHzgRboZslFe5JnH6U-muOJP0KlzENk5Ox64JjxHtJwUosDcnZzuwV8s-K3O7TUrOv1K5rbvN3LEnpy5m00]--></g></svg>